<svg width="405" height="351" viewBox="0 0 405 351" fill="none" xmlns="http://www.w3.org/2000/svg">
<rect width="405" height="351" rx="4" fill="#111111"/>
<path d="M44.638 158.624C43.102 158.624 42.014 157.392 42.014 155.664V149.12H40.414V155.904C40.414 158.384 42.174 160.16 44.638 160.16C47.102 160.16 48.862 158.384 48.862 155.904V149.12H47.262V155.664C47.262 157.392 46.174 158.624 44.638 158.624ZM54.0659 152.032C53.0259 152.032 52.0979 152.48 51.3139 153.264L51.0579 152.192H49.8419V160H51.4419V154.736C51.9379 154.08 52.7539 153.6 53.5699 153.6C54.2579 153.6 54.8339 153.904 54.8339 155.008V160H56.4339V155.344C56.4339 155.136 56.4339 154.944 56.4179 154.752C56.9139 154.096 57.7459 153.6 58.5619 153.6C59.2499 153.6 59.8259 153.904 59.8259 155.008V160H61.4259V155.344C61.4259 153.68 61.2659 152.032 59.0579 152.032C57.9699 152.032 57.0099 152.512 56.2099 153.376C55.9379 152.576 55.3459 152.032 54.0659 152.032ZM68.1485 160V155.248C68.1485 153.248 67.1885 152.032 65.3485 152.032C64.1325 152.032 63.4925 152.256 62.4525 152.672L62.9325 153.904C63.7005 153.568 64.4365 153.44 65.0285 153.44C66.1485 153.44 66.5485 154.112 66.5485 154.768V155.392C66.1485 155.104 65.5725 154.88 64.7405 154.88C63.1885 154.88 61.7965 155.92 61.7965 157.552C61.7965 159.072 63.0445 160.224 64.7085 160.224C65.5245 160.224 66.2605 159.84 66.7885 159.264L66.9965 160H68.1485ZM65.0285 156.304C65.9885 156.304 66.6285 156.88 66.6285 157.552C66.6125 158.224 65.9725 158.8 65.0285 158.8C64.0685 158.8 63.4285 158.224 63.4285 157.552C63.4285 156.88 64.0685 156.304 65.0285 156.304ZM76.959 152.032C75.855 152.032 74.815 152.48 73.983 153.28L73.711 152.192H72.495V160H74.095V154.768C74.639 154.096 75.583 153.6 76.463 153.6C77.151 153.6 77.727 153.904 77.727 155.008V160H79.327V155.344C79.327 153.68 79.167 152.032 76.959 152.032ZM83.6837 152.032C81.2997 152.032 79.6997 153.664 79.6997 156.112C79.6997 158.544 81.2997 160.16 83.6837 160.16C86.0837 160.16 87.6837 158.544 87.6837 156.112C87.6837 153.664 86.0837 152.032 83.6837 152.032ZM83.6837 158.624C82.2757 158.624 81.3317 157.616 81.3317 156.096C81.3317 154.576 82.2757 153.568 83.6837 153.568C85.1077 153.568 86.0517 154.592 86.0517 156.112C86.0517 157.616 85.1077 158.624 83.6837 158.624ZM94.9913 152.192H93.2473L91.2633 157.952L89.1993 152.192H87.4233L90.5273 160H92.0473L94.9913 152.192ZM100.914 160V155.248C100.914 153.248 99.9542 152.032 98.1142 152.032C96.8982 152.032 96.2582 152.256 95.2182 152.672L95.6982 153.904C96.4662 153.568 97.2022 153.44 97.7942 153.44C98.9142 153.44 99.3142 154.112 99.3142 154.768V155.392C98.9142 155.104 98.3382 154.88 97.5062 154.88C95.9542 154.88 94.5622 155.92 94.5622 157.552C94.5622 159.072 95.8102 160.224 97.4742 160.224C98.2902 160.224 99.0262 159.84 99.5542 159.264L99.7622 160H100.914ZM97.7942 156.304C98.7542 156.304 99.3942 156.88 99.3942 157.552C99.3782 158.224 98.7382 158.8 97.7942 158.8C96.8342 158.8 96.1942 158.224 96.1942 157.552C96.1942 156.88 96.8342 156.304 97.7942 156.304ZM106.029 160H107.629V153.664H109.133V152.192H107.629V151.552C107.629 150.8 108.093 150.528 108.557 150.528C108.861 150.528 109.053 150.56 109.293 150.608V149.12C108.957 149.04 108.733 148.96 108.253 148.96C106.877 148.96 106.029 149.728 106.029 151.424V152.192H104.829V153.664H106.029V160ZM112.918 152.032C110.534 152.032 108.934 153.664 108.934 156.112C108.934 158.544 110.534 160.16 112.918 160.16C115.318 160.16 116.918 158.544 116.918 156.112C116.918 153.664 115.318 152.032 112.918 152.032ZM112.918 158.624C111.51 158.624 110.566 157.616 110.566 156.096C110.566 154.576 111.51 153.568 112.918 153.568C114.342 153.568 115.286 154.592 115.286 156.112C115.286 157.616 114.342 158.624 112.918 158.624ZM118.558 152.192H117.342V160H118.942V154.416C119.278 153.872 119.87 153.616 121.006 153.616H121.502V152.176C121.342 152.08 121.038 152.032 120.718 152.032C119.95 152.032 119.166 152.576 118.718 153.088L118.558 152.192ZM126.091 152.032C125.051 152.032 124.123 152.48 123.339 153.264L123.083 152.192H121.867V160H123.467V154.736C123.963 154.08 124.779 153.6 125.595 153.6C126.283 153.6 126.859 153.904 126.859 155.008V160H128.459V155.344C128.459 155.136 128.459 154.944 128.443 154.752C128.939 154.096 129.771 153.6 130.587 153.6C131.275 153.6 131.851 153.904 131.851 155.008V160H133.451V155.344C133.451 153.68 133.291 152.032 131.083 152.032C129.995 152.032 129.035 152.512 128.235 153.376C127.963 152.576 127.371 152.032 126.091 152.032ZM140.174 160V155.248C140.174 153.248 139.214 152.032 137.374 152.032C136.158 152.032 135.518 152.256 134.478 152.672L134.958 153.904C135.726 153.568 136.462 153.44 137.054 153.44C138.174 153.44 138.574 154.112 138.574 154.768V155.392C138.174 155.104 137.598 154.88 136.766 154.88C135.214 154.88 133.822 155.92 133.822 157.552C133.822 159.072 135.07 160.224 136.734 160.224C137.55 160.224 138.286 159.84 138.814 159.264L139.022 160H140.174ZM137.054 156.304C138.014 156.304 138.654 156.88 138.654 157.552C138.638 158.224 137.998 158.8 137.054 158.8C136.094 158.8 135.454 158.224 135.454 157.552C135.454 156.88 136.094 156.304 137.054 156.304ZM147.864 152.032C145.656 152.032 144.184 153.648 144.184 156.08C144.184 158.528 145.656 160.16 147.864 160.16C148.888 160.16 149.768 159.76 150.376 159.072L150.6 160H151.816V149.12H150.216V152.944C149.624 152.368 148.808 152.032 147.864 152.032ZM148.024 153.408C149.336 153.408 150.216 154.48 150.216 156.096C150.216 157.712 149.336 158.784 148.024 158.784C146.696 158.784 145.816 157.696 145.816 156.08C145.816 154.48 146.696 153.408 148.024 153.408ZM156.064 160.16C157.792 160.16 158.896 159.488 159.616 158.144L158.416 157.392C157.904 158.192 157.328 158.784 156.064 158.784C154.736 158.784 153.936 157.92 153.888 156.56H159.872C159.888 156.4 159.904 156.272 159.904 156.112C159.904 153.664 158.368 152.032 156.064 152.032C153.776 152.032 152.24 153.664 152.24 156.112C152.24 158.544 153.776 160.16 156.064 160.16ZM156.064 153.328C157.248 153.328 157.952 154.064 158.176 155.184H153.92C154.08 154.064 154.88 153.328 156.064 153.328ZM167.539 153.408C168.547 153.44 169.155 153.904 169.619 154.864L170.787 154.304C170.115 152.672 168.899 152.032 167.411 152.032C165.123 152.032 163.587 153.696 163.587 156.096C163.587 158.496 164.963 160.16 167.411 160.16C168.899 160.16 170.115 159.52 170.787 157.888L169.619 157.328C169.155 158.288 168.547 158.784 167.539 158.784C166.051 158.784 165.219 157.696 165.219 156.08C165.219 154.448 166.051 153.36 167.539 153.408ZM174.674 152.032C172.29 152.032 170.69 153.664 170.69 156.112C170.69 158.544 172.29 160.16 174.674 160.16C177.074 160.16 178.674 158.544 178.674 156.112C178.674 153.664 177.074 152.032 174.674 152.032ZM174.674 158.624C173.266 158.624 172.322 157.616 172.322 156.096C172.322 154.576 173.266 153.568 174.674 153.568C176.098 153.568 177.042 154.592 177.042 156.112C177.042 157.616 176.098 158.624 174.674 158.624ZM183.562 152.032C182.458 152.032 181.418 152.48 180.586 153.28L180.314 152.192H179.098V160H180.698V154.768C181.242 154.096 182.186 153.6 183.066 153.6C183.754 153.6 184.33 153.904 184.33 155.008V160H185.93V155.344C185.93 153.68 185.77 152.032 183.562 152.032ZM186.559 154.368C186.559 155.808 187.423 156.336 188.959 156.736C190.191 157.056 190.527 157.376 190.527 157.872C190.527 158.336 190.063 158.784 189.455 158.784C188.607 158.784 188.159 158.448 187.567 157.664L186.351 158.464C187.039 159.696 188.175 160.16 189.263 160.16C190.719 160.16 192.047 159.232 192.047 157.696C192.047 156.528 191.327 155.856 189.455 155.408C188.351 155.152 188.015 154.784 188.015 154.32C188.015 153.792 188.527 153.472 189.071 153.472C189.935 153.472 190.511 153.936 190.815 154.32L192.047 153.408C191.519 152.672 190.559 152.032 189.247 152.032C187.567 152.032 186.559 153.088 186.559 154.368ZM196.537 158.496C196.313 158.56 196.057 158.608 195.689 158.608C195.225 158.608 194.873 158.32 194.873 157.712V153.664H196.537V152.192H194.873V150.432H193.577L193.273 152.192H192.073V153.664H193.273V157.68C193.273 159.376 194.121 160.144 195.497 160.144C195.977 160.144 196.201 160.064 196.537 159.984V158.496ZM198.202 152.192H196.986V160H198.586V154.416C198.922 153.872 199.514 153.616 200.65 153.616H201.146V152.176C200.986 152.08 200.682 152.032 200.362 152.032C199.594 152.032 198.81 152.576 198.362 153.088L198.202 152.192ZM203.913 160.16C204.953 160.16 205.945 159.712 206.745 158.928L207.001 160H208.217V152.192H206.617V157.424C206.073 158.096 205.129 158.592 204.249 158.592C203.561 158.592 202.985 158.288 202.985 157.184V152.192H201.385V156.848C201.385 158.512 201.561 160.16 203.913 160.16ZM208.907 149.792C208.907 150.4 209.307 150.832 209.947 150.832C210.571 150.832 210.987 150.4 210.987 149.792C210.987 149.168 210.571 148.736 209.947 148.736C209.307 148.736 208.907 149.168 208.907 149.792ZM210.747 160V152.192H209.147V160H210.747ZM212.902 152.192H211.686V160H213.286V154.416C213.622 153.872 214.214 153.616 215.35 153.616H215.846V152.176C215.686 152.08 215.382 152.032 215.062 152.032C214.294 152.032 213.51 152.576 213.062 153.088L212.902 152.192ZM223.415 152.032C221.031 152.032 219.431 153.664 219.431 156.112C219.431 158.544 221.031 160.16 223.415 160.16C225.815 160.16 227.415 158.544 227.415 156.112C227.415 153.664 225.815 152.032 223.415 152.032ZM223.415 158.624C222.007 158.624 221.063 157.616 221.063 156.096C221.063 154.576 222.007 153.568 223.415 153.568C224.839 153.568 225.783 154.592 225.783 156.112C225.783 157.616 224.839 158.624 223.415 158.624ZM40.19 178.368C40.19 179.808 41.054 180.336 42.59 180.736C43.822 181.056 44.158 181.376 44.158 181.872C44.158 182.336 43.694 182.784 43.086 182.784C42.238 182.784 41.79 182.448 41.198 181.664L39.982 182.464C40.67 183.696 41.806 184.16 42.894 184.16C44.35 184.16 45.678 183.232 45.678 181.696C45.678 180.528 44.958 179.856 43.086 179.408C41.982 179.152 41.646 178.784 41.646 178.32C41.646 177.792 42.158 177.472 42.702 177.472C43.566 177.472 44.142 177.936 44.446 178.32L45.678 177.408C45.15 176.672 44.19 176.032 42.878 176.032C41.198 176.032 40.19 177.088 40.19 178.368ZM49.5643 184.16C51.2923 184.16 52.3963 183.488 53.1163 182.144L51.9163 181.392C51.4043 182.192 50.8283 182.784 49.5643 182.784C48.2363 182.784 47.4363 181.92 47.3883 180.56H53.3723C53.3883 180.4 53.4043 180.272 53.4043 180.112C53.4043 177.664 51.8683 176.032 49.5643 176.032C47.2763 176.032 45.7403 177.664 45.7403 180.112C45.7403 182.544 47.2763 184.16 49.5643 184.16ZM49.5643 177.328C50.7483 177.328 51.4523 178.064 51.6763 179.184H47.4203C47.5803 178.064 48.3803 177.328 49.5643 177.328ZM56.1907 184.16C57.2307 184.16 58.2227 183.712 59.0227 182.928L59.2787 184H60.4947V176.192H58.8947V181.424C58.3507 182.096 57.4067 182.592 56.5267 182.592C55.8387 182.592 55.2627 182.288 55.2627 181.184V176.192H53.6627V180.848C53.6627 182.512 53.8387 184.16 56.1907 184.16ZM65.6537 184H67.2537V177.664H68.7577V176.192H67.2537V175.552C67.2537 174.8 67.7177 174.528 68.1817 174.528C68.4857 174.528 68.6777 174.56 68.9177 174.608V173.12C68.5817 173.04 68.3577 172.96 67.8777 172.96C66.5017 172.96 65.6537 173.728 65.6537 175.424V176.192H64.4537V177.664H65.6537V184ZM71.6094 184.16C72.6494 184.16 73.6414 183.712 74.4414 182.928L74.6974 184H75.9134V176.192H74.3134V181.424C73.7694 182.096 72.8254 182.592 71.9454 182.592C71.2574 182.592 70.6814 182.288 70.6814 181.184V176.192H69.0814V180.848C69.0814 182.512 69.2574 184.16 71.6094 184.16ZM80.6842 182.496C80.4602 182.56 80.2042 182.608 79.8362 182.608C79.3722 182.608 79.0202 182.32 79.0202 181.712V177.664H80.6842V176.192H79.0202V174.432H77.7242L77.4202 176.192H76.2202V177.664H77.4202V181.68C77.4202 183.376 78.2682 184.144 79.6442 184.144C80.1242 184.144 80.3482 184.064 80.6842 183.984V182.496ZM83.6125 184.16C84.6525 184.16 85.6445 183.712 86.4445 182.928L86.7005 184H87.9165V176.192H86.3165V181.424C85.7725 182.096 84.8285 182.592 83.9485 182.592C83.2605 182.592 82.6845 182.288 82.6845 181.184V176.192H81.0845V180.848C81.0845 182.512 81.2605 184.16 83.6125 184.16ZM89.9673 176.192H88.7513V184H90.3513V178.416C90.6873 177.872 91.2793 177.616 92.4153 177.616H92.9113V176.176C92.7513 176.08 92.4473 176.032 92.1273 176.032C91.3593 176.032 90.5753 176.576 90.1273 177.088L89.9673 176.192ZM96.3618 176.032C93.9778 176.032 92.3778 177.664 92.3778 180.112C92.3778 182.544 93.9778 184.16 96.3618 184.16C98.7618 184.16 100.362 182.544 100.362 180.112C100.362 177.664 98.7618 176.032 96.3618 176.032ZM96.3618 182.624C94.9538 182.624 94.0098 181.616 94.0098 180.096C94.0098 178.576 94.9538 177.568 96.3618 177.568C97.7858 177.568 98.7298 178.592 98.7298 180.112C98.7298 181.616 97.7858 182.624 96.3618 182.624ZM108.884 176.032C107.78 176.032 106.74 176.48 105.908 177.28L105.636 176.192H104.42V184H106.02V178.768C106.564 178.096 107.508 177.6 108.388 177.6C109.076 177.6 109.652 177.904 109.652 179.008V184H111.252V179.344C111.252 177.68 111.092 176.032 108.884 176.032ZM117.977 184V179.248C117.977 177.248 117.017 176.032 115.177 176.032C113.961 176.032 113.321 176.256 112.281 176.672L112.761 177.904C113.529 177.568 114.265 177.44 114.857 177.44C115.977 177.44 116.377 178.112 116.377 178.768V179.392C115.977 179.104 115.401 178.88 114.569 178.88C113.017 178.88 111.625 179.92 111.625 181.552C111.625 183.072 112.873 184.224 114.537 184.224C115.353 184.224 116.089 183.84 116.617 183.264L116.825 184H117.977ZM114.857 180.304C115.817 180.304 116.457 180.88 116.457 181.552C116.441 182.224 115.801 182.8 114.857 182.8C113.897 182.8 113.257 182.224 113.257 181.552C113.257 180.88 113.897 180.304 114.857 180.304ZM126.787 176.032C125.683 176.032 124.643 176.48 123.811 177.28L123.539 176.192H122.323V184H123.923V178.768C124.467 178.096 125.411 177.6 126.291 177.6C126.979 177.6 127.555 177.904 127.555 179.008V184H129.155V179.344C129.155 177.68 128.995 176.032 126.787 176.032ZM133.512 176.032C131.128 176.032 129.528 177.664 129.528 180.112C129.528 182.544 131.128 184.16 133.512 184.16C135.912 184.16 137.512 182.544 137.512 180.112C137.512 177.664 135.912 176.032 133.512 176.032ZM133.512 182.624C132.104 182.624 131.16 181.616 131.16 180.096C131.16 178.576 132.104 177.568 133.512 177.568C134.936 177.568 135.88 178.592 135.88 180.112C135.88 181.616 134.936 182.624 133.512 182.624ZM137.778 178.368C137.778 179.808 138.642 180.336 140.178 180.736C141.41 181.056 141.746 181.376 141.746 181.872C141.746 182.336 141.282 182.784 140.674 182.784C139.826 182.784 139.378 182.448 138.786 181.664L137.57 182.464C138.258 183.696 139.394 184.16 140.482 184.16C141.938 184.16 143.266 183.232 143.266 181.696C143.266 180.528 142.546 179.856 140.674 179.408C139.57 179.152 139.234 178.784 139.234 178.32C139.234 177.792 139.746 177.472 140.29 177.472C141.154 177.472 141.73 177.936 142.034 178.32L143.266 177.408C142.738 176.672 141.778 176.032 140.466 176.032C138.786 176.032 137.778 177.088 137.778 178.368ZM143.506 178.368C143.506 179.808 144.37 180.336 145.906 180.736C147.138 181.056 147.474 181.376 147.474 181.872C147.474 182.336 147.01 182.784 146.402 182.784C145.554 182.784 145.106 182.448 144.514 181.664L143.298 182.464C143.986 183.696 145.122 184.16 146.21 184.16C147.666 184.16 148.994 183.232 148.994 181.696C148.994 180.528 148.274 179.856 146.402 179.408C145.298 179.152 144.962 178.784 144.962 178.32C144.962 177.792 145.474 177.472 146.018 177.472C146.882 177.472 147.458 177.936 147.762 178.32L148.994 177.408C148.466 176.672 147.506 176.032 146.194 176.032C144.514 176.032 143.506 177.088 143.506 178.368ZM155.252 184V179.248C155.252 177.248 154.292 176.032 152.452 176.032C151.236 176.032 150.596 176.256 149.556 176.672L150.036 177.904C150.804 177.568 151.54 177.44 152.132 177.44C153.252 177.44 153.652 178.112 153.652 178.768V179.392C153.252 179.104 152.676 178.88 151.844 178.88C150.292 178.88 148.9 179.92 148.9 181.552C148.9 183.072 150.148 184.224 151.812 184.224C152.628 184.224 153.364 183.84 153.892 183.264L154.1 184H155.252ZM152.132 180.304C153.092 180.304 153.732 180.88 153.732 181.552C153.716 182.224 153.076 182.8 152.132 182.8C151.172 182.8 150.532 182.224 150.532 181.552C150.532 180.88 151.172 180.304 152.132 180.304ZM169.982 179.2C169.982 178.976 169.934 178.608 169.87 178.432H164.526V179.936H168.334C167.902 181.536 166.398 182.624 164.622 182.624C162.414 182.624 160.75 180.912 160.75 178.56C160.75 176.208 162.414 174.496 164.622 174.496C165.934 174.496 167.054 174.88 168.03 176.224L169.598 175.76C168.59 174.048 167.102 172.96 164.622 172.96C161.47 172.96 159.118 175.328 159.118 178.56C159.118 181.776 161.47 184.16 164.622 184.16C167.678 184.16 169.982 181.92 169.982 179.2ZM171.839 176.192H170.623V184H172.223V178.416C172.559 177.872 173.151 177.616 174.287 177.616H174.783V176.176C174.623 176.08 174.319 176.032 173.999 176.032C173.231 176.032 172.447 176.576 171.999 177.088L171.839 176.192ZM180.68 184V179.248C180.68 177.248 179.72 176.032 177.88 176.032C176.664 176.032 176.024 176.256 174.984 176.672L175.464 177.904C176.232 177.568 176.968 177.44 177.56 177.44C178.68 177.44 179.08 178.112 179.08 178.768V179.392C178.68 179.104 178.104 178.88 177.272 178.88C175.72 178.88 174.328 179.92 174.328 181.552C174.328 183.072 175.576 184.224 177.24 184.224C178.056 184.224 178.792 183.84 179.32 183.264L179.528 184H180.68ZM177.56 180.304C178.52 180.304 179.16 180.88 179.16 181.552C179.144 182.224 178.504 182.8 177.56 182.8C176.6 182.8 175.96 182.224 175.96 181.552C175.96 180.88 176.6 180.304 177.56 180.304ZM184.814 176.032C182.606 176.032 181.134 177.648 181.134 180.08C181.134 182.528 182.606 184.16 184.814 184.16C185.838 184.16 186.718 183.76 187.326 183.072L187.55 184H188.766V173.12H187.166V176.944C186.574 176.368 185.758 176.032 184.814 176.032ZM184.974 177.408C186.286 177.408 187.166 178.48 187.166 180.096C187.166 181.712 186.286 182.784 184.974 182.784C183.646 182.784 182.766 181.696 182.766 180.08C182.766 178.48 183.646 177.408 184.974 177.408ZM192.006 184.16C193.046 184.16 194.038 183.712 194.838 182.928L195.094 184H196.31V176.192H194.71V181.424C194.166 182.096 193.222 182.592 192.342 182.592C191.654 182.592 191.078 182.288 191.078 181.184V176.192H189.478V180.848C189.478 182.512 189.654 184.16 192.006 184.16ZM203.005 184V179.248C203.005 177.248 202.045 176.032 200.205 176.032C198.989 176.032 198.349 176.256 197.309 176.672L197.789 177.904C198.557 177.568 199.293 177.44 199.885 177.44C201.005 177.44 201.405 178.112 201.405 178.768V179.392C201.005 179.104 200.429 178.88 199.597 178.88C198.045 178.88 196.653 179.92 196.653 181.552C196.653 183.072 197.901 184.224 199.565 184.224C200.381 184.224 201.117 183.84 201.645 183.264L201.853 184H203.005ZM199.885 180.304C200.845 180.304 201.485 180.88 201.485 181.552C201.469 182.224 200.829 182.8 199.885 182.8C198.925 182.8 198.285 182.224 198.285 181.552C198.285 180.88 198.925 180.304 199.885 180.304ZM207.155 187.248C208.067 187.248 208.835 186.736 208.835 185.856C208.835 185.232 208.483 184.704 207.523 184.624L207.683 184.144C208.979 184.032 210.051 183.376 210.659 181.888L209.491 181.328C209.027 182.288 208.419 182.784 207.411 182.784C205.923 182.784 205.091 181.696 205.091 180.08C205.091 178.448 205.923 177.36 207.411 177.408C208.419 177.44 209.027 177.904 209.491 178.864L210.659 178.304C209.987 176.672 208.771 176.032 207.283 176.032C204.995 176.032 203.459 177.696 203.459 180.096C203.459 182.288 204.611 183.872 206.691 184.128L206.275 185.408H206.899C207.683 185.408 207.907 185.552 207.907 185.888C207.907 186.128 207.699 186.352 206.995 186.352C206.579 186.352 206.259 186.224 205.987 186.08L205.555 186.784C205.971 187.056 206.483 187.248 207.155 187.248ZM214.804 174.88C215.828 174.88 216.308 174.208 216.692 173.44L215.62 172.912C215.316 173.408 215.124 173.728 214.628 173.728C213.94 173.728 213.78 173.136 212.82 173.136C211.796 173.136 211.316 173.776 210.932 174.544L212.004 175.072C212.308 174.576 212.5 174.352 212.996 174.352C213.684 174.352 213.844 174.88 214.804 174.88ZM216.836 184V179.248C216.836 177.248 215.876 176.032 214.036 176.032C212.82 176.032 212.18 176.256 211.14 176.672L211.62 177.904C212.388 177.568 213.124 177.44 213.716 177.44C214.836 177.44 215.236 178.112 215.236 178.768V179.392C214.836 179.104 214.26 178.88 213.428 178.88C211.876 178.88 210.484 179.92 210.484 181.552C210.484 183.072 211.732 184.224 213.396 184.224C214.212 184.224 214.948 183.84 215.476 183.264L215.684 184H216.836ZM213.716 180.304C214.676 180.304 215.316 180.88 215.316 181.552C215.3 182.224 214.66 182.8 213.716 182.8C212.756 182.8 212.116 182.224 212.116 181.552C212.116 180.88 212.756 180.304 213.716 180.304ZM221.274 176.032C218.89 176.032 217.29 177.664 217.29 180.112C217.29 182.544 218.89 184.16 221.274 184.16C223.674 184.16 225.274 182.544 225.274 180.112C225.274 177.664 223.674 176.032 221.274 176.032ZM221.274 182.624C219.866 182.624 218.922 181.616 218.922 180.096C218.922 178.576 219.866 177.568 221.274 177.568C222.698 177.568 223.642 178.592 223.642 180.112C223.642 181.616 222.698 182.624 221.274 182.624ZM39.79 202.56C39.79 205.776 42.206 208.16 45.454 208.16C48.67 208.16 51.07 205.776 51.07 202.56C51.07 199.328 48.67 196.96 45.454 196.96C42.206 196.96 39.79 199.328 39.79 202.56ZM41.422 202.56C41.422 200.208 43.15 198.496 45.454 198.496C47.742 198.496 49.438 200.208 49.438 202.56C49.438 204.912 47.742 206.624 45.454 206.624C43.15 206.624 41.422 204.912 41.422 202.56ZM55.8997 200.032C54.7957 200.032 53.7557 200.48 52.9237 201.28L52.6517 200.192H51.4357V208H53.0357V202.768C53.5797 202.096 54.5237 201.6 55.4037 201.6C56.0917 201.6 56.6677 201.904 56.6677 203.008V208H58.2677V203.344C58.2677 201.68 58.1077 200.032 55.8997 200.032ZM61.3123 207.92V206.64C60.8803 206.64 60.4963 206.448 60.4963 205.792V197.12H58.9283V206.352C58.9283 207.472 59.5203 208.08 60.3523 208.08C60.7043 208.08 61.0403 208.032 61.3123 207.92ZM61.6698 197.792C61.6698 198.4 62.0698 198.832 62.7098 198.832C63.3338 198.832 63.7498 198.4 63.7498 197.792C63.7498 197.168 63.3338 196.736 62.7098 196.736C62.0698 196.736 61.6698 197.168 61.6698 197.792ZM63.5098 208V200.192H61.9098V208H63.5098ZM68.9122 200.032C67.8082 200.032 66.7682 200.48 65.9362 201.28L65.6642 200.192H64.4482V208H66.0482V202.768C66.5922 202.096 67.5362 201.6 68.4162 201.6C69.1042 201.6 69.6802 201.904 69.6802 203.008V208H71.2802V203.344C71.2802 201.68 71.1202 200.032 68.9122 200.032ZM75.4768 208.16C77.2048 208.16 78.3088 207.488 79.0288 206.144L77.8288 205.392C77.3168 206.192 76.7408 206.784 75.4768 206.784C74.1488 206.784 73.3488 205.92 73.3008 204.56H79.2848C79.3008 204.4 79.3168 204.272 79.3168 204.112C79.3168 201.664 77.7808 200.032 75.4768 200.032C73.1888 200.032 71.6528 201.664 71.6528 204.112C71.6528 206.544 73.1888 208.16 75.4768 208.16ZM75.4768 201.328C76.6608 201.328 77.3648 202.064 77.5888 203.184H73.3328C73.4928 202.064 74.2928 201.328 75.4768 201.328Z" fill="white"/>
<rect x="40" y="251" width="328" height="55" rx="4" fill="url(#paint0_linear)"/>
<path d="M162.582 269.13H159.882V282H162.582V269.13ZM170.147 272.514C168.887 272.514 167.735 273.072 166.817 273.828L166.493 272.748H164.495V282H167.195V276.114C167.789 275.538 168.581 275.16 169.301 275.16C169.949 275.16 170.381 275.412 170.381 276.474V282H173.081V276.366C173.081 274.404 172.667 272.514 170.147 272.514ZM177.979 282.27C180.049 282.27 181.615 281.064 181.615 279.246C181.615 277.68 180.697 276.816 178.411 276.276C177.061 275.952 176.701 275.718 176.701 275.322C176.701 274.926 177.151 274.692 177.709 274.692C178.681 274.692 179.473 275.124 179.995 275.628L181.687 274.188C180.895 273.252 179.689 272.46 177.943 272.46C175.711 272.46 174.361 273.846 174.361 275.484C174.361 277.068 175.279 277.896 177.241 278.382C178.807 278.778 179.149 279.012 179.149 279.444C179.149 279.822 178.771 280.11 178.195 280.11C177.277 280.11 176.539 279.768 175.711 278.868L174.163 280.326C175.207 281.748 176.503 282.27 177.979 282.27ZM186.939 282.234C188.937 282.234 190.557 281.1 191.223 279.426L188.775 278.346C188.415 279.138 187.839 279.588 186.939 279.588C185.787 279.588 184.923 278.76 184.923 277.356C184.923 275.97 185.787 275.124 186.939 275.124C187.839 275.124 188.415 275.592 188.775 276.402L191.223 275.322C190.557 273.612 188.955 272.514 186.939 272.514C184.095 272.514 182.223 274.548 182.223 277.356C182.223 280.2 184.095 282.234 186.939 282.234ZM196.699 272.514C195.799 272.514 194.899 273.126 194.341 273.72L194.071 272.748H192.073V282H194.773V275.79C195.259 275.34 195.997 275.142 197.023 275.142H197.635V272.694C197.437 272.586 197.095 272.514 196.699 272.514ZM206.984 277.356C206.984 274.62 205.184 272.514 202.358 272.514C199.586 272.514 197.75 274.53 197.75 277.374C197.75 280.29 199.586 282.18 202.358 282.18C204.374 282.18 205.868 281.316 206.66 279.804L204.824 278.778C204.338 279.516 203.708 280.074 202.502 280.074C201.188 280.074 200.378 279.372 200.252 278.148H206.93C206.966 277.95 206.984 277.68 206.984 277.356ZM202.376 274.62C203.564 274.62 204.248 275.286 204.464 276.312H200.252C200.45 275.268 201.224 274.62 202.376 274.62ZM211.93 278.706L209.914 272.748H207.124L210.634 282H213.244L216.574 272.748H213.856L211.93 278.706ZM220.938 272.514C219.624 272.514 218.346 272.874 217.248 273.414L218.022 275.358C218.976 274.908 219.876 274.764 220.56 274.764C221.64 274.764 222.09 275.358 222.09 276.042V276.6C221.532 276.204 220.812 276.006 219.93 276.006C218.004 276.006 216.528 277.212 216.528 279.138C216.528 281.01 217.878 282.252 219.912 282.252C220.974 282.252 221.82 281.946 222.396 281.37L222.594 282H224.79V276.15C224.79 274.008 223.494 272.514 220.938 272.514ZM220.722 280.29C219.876 280.29 219.336 279.84 219.336 279.138C219.336 278.436 219.876 277.968 220.722 277.968C221.568 277.968 222.108 278.436 222.108 279.138C222.108 279.84 221.568 280.29 220.722 280.29ZM231.849 275.376H225.945V277.842H231.849V275.376ZM236.47 282.27C238.54 282.27 240.106 281.064 240.106 279.246C240.106 277.68 239.188 276.816 236.902 276.276C235.552 275.952 235.192 275.718 235.192 275.322C235.192 274.926 235.642 274.692 236.2 274.692C237.172 274.692 237.964 275.124 238.486 275.628L240.178 274.188C239.386 273.252 238.18 272.46 236.434 272.46C234.202 272.46 232.852 273.846 232.852 275.484C232.852 277.068 233.77 277.896 235.732 278.382C237.298 278.778 237.64 279.012 237.64 279.444C237.64 279.822 237.262 280.11 236.686 280.11C235.768 280.11 235.03 279.768 234.202 278.868L232.654 280.326C233.698 281.748 234.994 282.27 236.47 282.27ZM249.948 277.356C249.948 274.62 248.148 272.514 245.322 272.514C242.55 272.514 240.714 274.53 240.714 277.374C240.714 280.29 242.55 282.18 245.322 282.18C247.338 282.18 248.832 281.316 249.624 279.804L247.788 278.778C247.302 279.516 246.672 280.074 245.466 280.074C244.152 280.074 243.342 279.372 243.216 278.148H249.894C249.93 277.95 249.948 277.68 249.948 277.356ZM245.34 274.62C246.528 274.62 247.212 275.286 247.428 276.312H243.216C243.414 275.268 244.188 274.62 245.34 274.62Z" fill="white"/>
<path d="M44.608 82V74.58H51.72V69.988H44.608V66.292H52.952V61.7H39.82V82H44.608ZM66.341 82V73.124C66.341 69.344 64.185 67.048 59.957 67.048C57.829 67.048 55.953 67.636 54.161 68.56L55.477 71.836C56.961 71.024 58.305 70.828 59.341 70.828C60.881 70.828 61.721 71.584 61.721 72.648V73.712C60.965 73.096 59.957 72.62 58.585 72.62C55.617 72.62 53.041 74.384 53.041 77.52C53.041 80.32 55.505 82.392 58.585 82.392C60.097 82.392 61.385 81.832 62.253 80.964L62.505 82H66.341ZM59.341 75.868C60.601 75.868 61.469 76.568 61.469 77.52C61.441 78.472 60.573 79.144 59.341 79.144C58.193 79.144 57.297 78.472 57.297 77.52C57.297 76.568 58.193 75.868 59.341 75.868ZM74.9082 71.388C76.1962 71.388 77.0082 71.976 77.6522 73.236L81.6562 71.36C80.5362 68.588 78.0162 67.048 74.7962 67.048C70.4842 67.048 67.4602 70.268 67.4602 74.72C67.4602 79.172 70.4842 82.392 74.7962 82.392C77.9882 82.392 80.5362 80.824 81.6562 78.052L77.6522 76.204C77.0082 77.436 76.1962 78.024 74.9082 78.024C73.2282 78.024 72.0802 76.736 72.0802 74.692C72.0802 72.704 73.2282 71.388 74.9082 71.388ZM87.9807 82.392C89.5487 82.392 91.1447 81.636 92.4047 80.572L92.7967 82H96.3247V67.44H91.7047V76.904C90.9207 77.632 89.9687 78.052 89.0727 78.052C87.8687 78.052 87.3087 77.632 87.3087 75.98V67.44H82.6887V76.4C82.6887 79.592 83.5847 82.392 87.9807 82.392ZM104.413 82.084V77.66C103.489 77.66 103.041 77.352 103.041 75.924V61.7H98.4209V77.324C98.4209 80.824 100.465 82.14 103.097 82.14C103.517 82.14 104.105 82.112 104.413 82.084ZM112.228 67.048C108.168 67.048 105.2 70.296 105.2 74.72C105.2 79.144 108.14 82.392 112.172 82.392C114.02 82.392 115.588 81.664 116.708 80.432L117.128 82H120.684V61.7H116.064V68.252C115.028 67.468 113.712 67.048 112.228 67.048ZM112.956 71.192C114.832 71.192 116.064 72.676 116.064 74.72C116.064 76.764 114.832 78.248 112.956 78.248C111.192 78.248 109.876 76.764 109.876 74.72C109.876 72.676 111.192 71.192 112.956 71.192ZM135.603 82V73.124C135.603 69.344 133.447 67.048 129.219 67.048C127.091 67.048 125.215 67.636 123.423 68.56L124.739 71.836C126.223 71.024 127.567 70.828 128.603 70.828C130.143 70.828 130.983 71.584 130.983 72.648V73.712C130.227 73.096 129.219 72.62 127.847 72.62C124.879 72.62 122.303 74.384 122.303 77.52C122.303 80.32 124.767 82.392 127.847 82.392C129.359 82.392 130.647 81.832 131.515 80.964L131.767 82H135.603ZM128.603 75.868C129.863 75.868 130.731 76.568 130.731 77.52C130.703 78.472 129.835 79.144 128.603 79.144C127.455 79.144 126.559 78.472 126.559 77.52C126.559 76.568 127.455 75.868 128.603 75.868ZM143.75 67.048C139.69 67.048 136.722 70.296 136.722 74.72C136.722 79.144 139.662 82.392 143.694 82.392C145.542 82.392 147.11 81.664 148.23 80.432L148.65 82H152.206V61.7H147.586V68.252C146.55 67.468 145.234 67.048 143.75 67.048ZM144.478 71.192C146.354 71.192 147.586 72.676 147.586 74.72C147.586 76.764 146.354 78.248 144.478 78.248C142.714 78.248 141.398 76.764 141.398 74.72C141.398 72.676 142.714 71.192 144.478 71.192ZM161.217 82.392C164.325 82.392 166.593 80.992 167.937 78.528L164.689 76.82C163.905 78.024 162.785 78.64 161.441 78.64C159.621 78.668 158.445 77.828 158.109 76.288H168.133C168.217 75.812 168.273 75.084 168.273 74.384C168.273 70.324 165.585 67.048 161.077 67.048C156.653 67.048 153.741 70.212 153.741 74.72C153.741 79.312 156.821 82.392 161.217 82.392ZM161.077 70.604C162.645 70.604 163.737 71.444 163.989 72.928H158.137C158.473 71.444 159.593 70.604 161.077 70.604ZM46.904 118C53.148 118 57.152 114.276 57.152 107.864C57.152 101.508 53.176 97.7 46.932 97.7H39.82V118H46.904ZM46.652 102.208C49.984 102.208 52.252 103.972 52.252 107.864C52.252 111.84 49.956 113.492 46.624 113.492H44.608V102.208H46.652ZM65.519 118.392C68.627 118.392 70.895 116.992 72.239 114.528L68.991 112.82C68.207 114.024 67.087 114.64 65.743 114.64C63.923 114.668 62.747 113.828 62.411 112.288H72.435C72.519 111.812 72.575 111.084 72.575 110.384C72.575 106.324 69.887 103.048 65.379 103.048C60.955 103.048 58.043 106.212 58.043 110.72C58.043 115.312 61.123 118.392 65.519 118.392ZM65.379 106.604C66.947 106.604 68.039 107.444 68.291 108.928H62.439C62.775 107.444 63.895 106.604 65.379 106.604ZM73.6783 107.78C73.6783 110.216 75.0223 111.728 77.9623 112.344C80.5103 112.904 81.1823 113.268 81.1823 113.912C81.1823 114.472 80.5663 114.836 79.8103 114.836C78.4383 114.836 77.2623 114.388 75.8343 112.904L73.3423 115.396C75.0503 117.552 76.9543 118.476 79.4183 118.476C82.8903 118.476 85.3263 116.544 85.3263 113.716C85.3263 111.028 83.6183 109.656 79.9783 108.872C78.1303 108.48 77.6823 108.144 77.6823 107.584C77.6823 106.996 78.2703 106.66 79.2223 106.66C80.6783 106.66 81.8823 107.276 82.6943 108.06L85.3543 105.596C84.1223 104.14 82.2463 102.936 79.5303 102.936C75.8903 102.936 73.6783 105.148 73.6783 107.78ZM93.7043 107.388C94.9923 107.388 95.8043 107.976 96.4483 109.236L100.452 107.36C99.3323 104.588 96.8123 103.048 93.5923 103.048C89.2803 103.048 86.2563 106.268 86.2563 110.72C86.2563 115.172 89.2803 118.392 93.5923 118.392C96.7843 118.392 99.3323 116.824 100.452 114.052L96.4483 112.204C95.8043 113.436 94.9923 114.024 93.7043 114.024C92.0243 114.024 90.8763 112.736 90.8763 110.692C90.8763 108.704 92.0243 107.388 93.7043 107.388ZM108.541 103.048C103.977 103.048 100.869 106.296 100.869 110.72C100.869 115.172 103.977 118.392 108.541 118.392C113.105 118.392 116.241 115.172 116.241 110.72C116.241 106.296 113.105 103.048 108.541 103.048ZM108.541 114.052C106.749 114.052 105.545 112.68 105.545 110.692C105.545 108.732 106.749 107.388 108.541 107.388C110.361 107.388 111.565 108.732 111.565 110.692C111.565 112.68 110.361 114.052 108.541 114.052ZM126.478 103.048C124.714 103.048 123.006 103.804 121.69 104.868L121.326 103.44H117.77V118H122.39V108.592C123.202 107.864 124.182 107.388 125.134 107.388C126.114 107.388 126.59 107.78 126.59 109.432V118H131.21V109.012C131.21 108.872 131.182 108.732 131.182 108.592C131.994 107.864 132.974 107.388 133.926 107.388C134.934 107.388 135.382 107.78 135.382 109.432V118H140.002V109.012C140.002 105.96 139.246 103.048 135.298 103.048C133.45 103.048 131.714 103.86 130.37 104.98C129.698 103.804 128.522 103.048 126.478 103.048ZM142.172 123.264H146.792V117.188C147.828 117.972 149.144 118.392 150.656 118.392C154.688 118.392 157.656 115.144 157.656 110.72C157.656 106.268 154.744 103.048 150.684 103.048C148.836 103.048 147.268 103.776 146.148 105.008L145.728 103.44H142.172V123.264ZM149.9 114.22C148.024 114.22 146.792 112.764 146.792 110.72C146.792 108.648 148.024 107.192 149.9 107.192C151.692 107.192 152.98 108.648 152.98 110.72C152.98 112.764 151.692 114.22 149.9 114.22ZM164.903 118.084V113.66C163.979 113.66 163.531 113.352 163.531 111.924V97.7H158.911V113.324C158.911 116.824 160.955 118.14 163.587 118.14C164.007 118.14 164.595 118.112 164.903 118.084ZM166.138 98.876C166.138 100.416 167.258 101.564 168.854 101.564C170.45 101.564 171.57 100.416 171.57 98.876C171.57 97.28 170.45 96.132 168.854 96.132C167.258 96.132 166.138 97.28 166.138 98.876ZM171.15 118V103.44H166.53V118H171.15ZM180.149 107.388C181.437 107.388 182.249 107.976 182.893 109.236L186.897 107.36C185.777 104.588 183.257 103.048 180.037 103.048C175.725 103.048 172.701 106.268 172.701 110.72C172.701 115.172 175.725 118.392 180.037 118.392C183.229 118.392 185.777 116.824 186.897 114.052L182.893 112.204C182.249 113.436 181.437 114.024 180.149 114.024C178.469 114.024 177.321 112.736 177.321 110.692C177.321 108.704 178.469 107.388 180.149 107.388ZM200.697 118V109.124C200.697 105.344 198.541 103.048 194.313 103.048C192.185 103.048 190.309 103.636 188.517 104.56L189.833 107.836C191.317 107.024 192.661 106.828 193.697 106.828C195.237 106.828 196.077 107.584 196.077 108.648V109.712C195.321 109.096 194.313 108.62 192.941 108.62C189.973 108.62 187.397 110.384 187.397 113.52C187.397 116.32 189.861 118.392 192.941 118.392C194.453 118.392 195.741 117.832 196.609 116.964L196.861 118H200.697ZM193.697 111.868C194.957 111.868 195.825 112.568 195.825 113.52C195.797 114.472 194.929 115.144 193.697 115.144C192.549 115.144 191.653 114.472 191.653 113.52C191.653 112.568 192.549 111.868 193.697 111.868Z" fill="white"/>
<path d="M360.481 112.295C367.64 100.37 363.776 84.8993 351.851 77.7399C339.926 70.5811 324.454 74.4448 317.295 86.3697C305.37 79.2111 289.9 83.0745 282.74 94.9996C275.581 106.925 279.445 122.396 291.37 129.555C284.211 141.48 288.075 156.951 300 164.11C311.925 171.27 327.396 167.406 334.555 155.48C346.48 162.64 361.951 158.776 369.11 146.851C376.27 134.925 372.406 119.455 360.481 112.295Z" fill="url(#paint1_linear)"/>
<path fill-rule="evenodd" clip-rule="evenodd" d="M330.983 105.634H329.067V103.417C329.067 102.434 328.6 102.15 328.017 102.15C327.45 102.15 326.983 102.434 326.983 103.417V113.25C326.983 114.233 327.417 114.517 328.067 114.517C328.7 114.517 329.15 114.233 329.15 113.25V109.15H327.883V107.584H330.983V113.267C330.983 115.45 329.75 116.15 328.017 116.15C326.3 116.15 325.067 115.45 325.067 113.267V103.4C325.067 101.217 326.3 100.517 328.017 100.517C329.75 100.517 330.983 101.217 330.983 103.4V105.634ZM310.233 100.667H312.083L313.55 114.25H313.833L315.317 100.667H317.15L315.383 116H312L310.233 100.667ZM322.267 116L321.933 112.884H319.367L319.033 116H317.183L318.95 100.667H322.333L324.1 116H322.267ZM321.75 111.267H319.55L320.5 102.417H320.783L321.75 111.267ZM336.7 112.884L337.033 116H338.867L337.1 100.667H333.717L331.95 116H333.8L334.133 112.884H336.7ZM334.317 111.267H336.517L335.55 102.417H335.267L334.317 111.267ZM343.717 105.65H345.567V103.417C345.567 101.25 344.383 100.55 342.667 100.55C340.967 100.55 339.767 101.25 339.767 103.417V105.45C339.767 107.463 340.931 108.248 341.992 108.963C342.882 109.563 343.7 110.115 343.7 111.3V113.233C343.7 114.2 343.267 114.5 342.667 114.5C342.083 114.5 341.633 114.2 341.633 113.233V111.017H339.783V113.25C339.783 115.417 340.967 116.117 342.683 116.117C344.4 116.117 345.6 115.417 345.6 113.25V111.217C345.6 109.204 344.431 108.419 343.365 107.704C342.471 107.104 341.65 106.552 341.65 105.367V103.434C341.65 102.467 342.1 102.167 342.683 102.167C343.267 102.167 343.717 102.467 343.717 103.434V105.65ZM300.9 138.383H303.583V140H298.983V124.667H300.9V138.383ZM305.05 124.667V140H306.967V124.667H305.05ZM308.5 140V124.667H311.5L313.033 137.483H313.183L314.717 124.667H317.717V140H315.933V127.25H315.75L314.2 140H312.017L310.467 127.25H310.283V140H308.5ZM319.25 124.667V140H321.167V124.667H319.25ZM328.333 124.667V126.284H326.383V140H324.467V126.284H322.517V124.667H328.333ZM333.1 136.883L333.433 140H335.267L333.5 124.667H330.117L328.35 140H330.2L330.533 136.883H333.1ZM330.717 135.267H332.917L331.95 126.417H331.667L330.717 135.267ZM342.467 127.567C342.467 125.55 342.05 124.667 339.85 124.667H336.567V140H339.85C342.05 140 342.467 139.117 342.467 137.1V127.567ZM340.55 137.117V127.55C340.55 126.567 340.283 126.284 339.433 126.284H338.483V138.383H339.433C340.283 138.383 340.55 138.1 340.55 137.117ZM348.183 136.883L348.517 140H350.35L348.583 124.667H345.2L343.433 140H345.283L345.617 136.883H348.183ZM345.8 135.267H348L347.033 126.417H346.75L345.8 135.267ZM355.2 129.65H357.05V127.417C357.05 125.25 355.867 124.55 354.15 124.55C352.45 124.55 351.25 125.25 351.25 127.417V129.45C351.25 131.463 352.414 132.248 353.475 132.963C354.365 133.563 355.183 134.115 355.183 135.3V137.233C355.183 138.2 354.75 138.5 354.15 138.5C353.567 138.5 353.117 138.2 353.117 137.233V135.017H351.267V137.25C351.267 139.417 352.45 140.117 354.167 140.117C355.883 140.117 357.083 139.417 357.083 137.25V135.217C357.083 133.204 355.914 132.419 354.848 131.704C353.955 131.104 353.133 130.552 353.133 129.367V127.434C353.133 126.467 353.583 126.167 354.167 126.167C354.75 126.167 355.2 126.467 355.2 127.434V129.65Z" fill="white"/>
<defs>
<linearGradient id="paint0_linear" x1="-209.902" y1="219.763" x2="-203.663" y2="333.538" gradientUnits="userSpaceOnUse">
<stop stop-color="#FF1B74"/>
<stop offset="1" stop-color="#FF5C35"/>
</linearGradient>
<linearGradient id="paint1_linear" x1="166.548" y1="-6.87331" x2="153.428" y2="329.333" gradientUnits="userSpaceOnUse">
<stop stop-color="#BB31FE"/>
<stop offset="1" stop-color="#4B93FE"/>
</linearGradient>
</defs>
</svg>
