<svg width="405" height="351" viewBox="0 0 405 351" fill="none" xmlns="http://www.w3.org/2000/svg">
<rect width="405" height="351" rx="4" fill="#00E88F"/>
<path d="M44.638 158.624C43.102 158.624 42.014 157.392 42.014 155.664V149.12H40.414V155.904C40.414 158.384 42.174 160.16 44.638 160.16C47.102 160.16 48.862 158.384 48.862 155.904V149.12H47.262V155.664C47.262 157.392 46.174 158.624 44.638 158.624ZM54.0659 152.032C53.0259 152.032 52.0979 152.48 51.3139 153.264L51.0579 152.192H49.8419V160H51.4419V154.736C51.9379 154.08 52.7539 153.6 53.5699 153.6C54.2579 153.6 54.8339 153.904 54.8339 155.008V160H56.4339V155.344C56.4339 155.136 56.4339 154.944 56.4179 154.752C56.9139 154.096 57.7459 153.6 58.5619 153.6C59.2499 153.6 59.8259 153.904 59.8259 155.008V160H61.4259V155.344C61.4259 153.68 61.2659 152.032 59.0579 152.032C57.9699 152.032 57.0099 152.512 56.2099 153.376C55.9379 152.576 55.3459 152.032 54.0659 152.032ZM68.1485 160V155.248C68.1485 153.248 67.1885 152.032 65.3485 152.032C64.1325 152.032 63.4925 152.256 62.4525 152.672L62.9325 153.904C63.7005 153.568 64.4365 153.44 65.0285 153.44C66.1485 153.44 66.5485 154.112 66.5485 154.768V155.392C66.1485 155.104 65.5725 154.88 64.7405 154.88C63.1885 154.88 61.7965 155.92 61.7965 157.552C61.7965 159.072 63.0445 160.224 64.7085 160.224C65.5245 160.224 66.2605 159.84 66.7885 159.264L66.9965 160H68.1485ZM65.0285 156.304C65.9885 156.304 66.6285 156.88 66.6285 157.552C66.6125 158.224 65.9725 158.8 65.0285 158.8C64.0685 158.8 63.4285 158.224 63.4285 157.552C63.4285 156.88 64.0685 156.304 65.0285 156.304ZM76.959 152.032C75.855 152.032 74.815 152.48 73.983 153.28L73.711 152.192H72.495V160H74.095V154.768C74.639 154.096 75.583 153.6 76.463 153.6C77.151 153.6 77.727 153.904 77.727 155.008V160H79.327V155.344C79.327 153.68 79.167 152.032 76.959 152.032ZM83.6837 152.032C81.2997 152.032 79.6997 153.664 79.6997 156.112C79.6997 158.544 81.2997 160.16 83.6837 160.16C86.0837 160.16 87.6837 158.544 87.6837 156.112C87.6837 153.664 86.0837 152.032 83.6837 152.032ZM83.6837 158.624C82.2757 158.624 81.3317 157.616 81.3317 156.096C81.3317 154.576 82.2757 153.568 83.6837 153.568C85.1077 153.568 86.0517 154.592 86.0517 156.112C86.0517 157.616 85.1077 158.624 83.6837 158.624ZM94.9913 152.192H93.2473L91.2633 157.952L89.1993 152.192H87.4233L90.5273 160H92.0473L94.9913 152.192ZM100.914 160V155.248C100.914 153.248 99.9542 152.032 98.1142 152.032C96.8982 152.032 96.2582 152.256 95.2182 152.672L95.6982 153.904C96.4662 153.568 97.2022 153.44 97.7942 153.44C98.9142 153.44 99.3142 154.112 99.3142 154.768V155.392C98.9142 155.104 98.3382 154.88 97.5062 154.88C95.9542 154.88 94.5622 155.92 94.5622 157.552C94.5622 159.072 95.8102 160.224 97.4742 160.224C98.2902 160.224 99.0262 159.84 99.5542 159.264L99.7622 160H100.914ZM97.7942 156.304C98.7542 156.304 99.3942 156.88 99.3942 157.552C99.3782 158.224 98.7382 158.8 97.7942 158.8C96.8342 158.8 96.1942 158.224 96.1942 157.552C96.1942 156.88 96.8342 156.304 97.7942 156.304ZM106.029 160H107.629V153.664H109.133V152.192H107.629V151.552C107.629 150.8 108.093 150.528 108.557 150.528C108.861 150.528 109.053 150.56 109.293 150.608V149.12C108.957 149.04 108.733 148.96 108.253 148.96C106.877 148.96 106.029 149.728 106.029 151.424V152.192H104.829V153.664H106.029V160ZM112.918 152.032C110.534 152.032 108.934 153.664 108.934 156.112C108.934 158.544 110.534 160.16 112.918 160.16C115.318 160.16 116.918 158.544 116.918 156.112C116.918 153.664 115.318 152.032 112.918 152.032ZM112.918 158.624C111.51 158.624 110.566 157.616 110.566 156.096C110.566 154.576 111.51 153.568 112.918 153.568C114.342 153.568 115.286 154.592 115.286 156.112C115.286 157.616 114.342 158.624 112.918 158.624ZM118.558 152.192H117.342V160H118.942V154.416C119.278 153.872 119.87 153.616 121.006 153.616H121.502V152.176C121.342 152.08 121.038 152.032 120.718 152.032C119.95 152.032 119.166 152.576 118.718 153.088L118.558 152.192ZM126.091 152.032C125.051 152.032 124.123 152.48 123.339 153.264L123.083 152.192H121.867V160H123.467V154.736C123.963 154.08 124.779 153.6 125.595 153.6C126.283 153.6 126.859 153.904 126.859 155.008V160H128.459V155.344C128.459 155.136 128.459 154.944 128.443 154.752C128.939 154.096 129.771 153.6 130.587 153.6C131.275 153.6 131.851 153.904 131.851 155.008V160H133.451V155.344C133.451 153.68 133.291 152.032 131.083 152.032C129.995 152.032 129.035 152.512 128.235 153.376C127.963 152.576 127.371 152.032 126.091 152.032ZM140.174 160V155.248C140.174 153.248 139.214 152.032 137.374 152.032C136.158 152.032 135.518 152.256 134.478 152.672L134.958 153.904C135.726 153.568 136.462 153.44 137.054 153.44C138.174 153.44 138.574 154.112 138.574 154.768V155.392C138.174 155.104 137.598 154.88 136.766 154.88C135.214 154.88 133.822 155.92 133.822 157.552C133.822 159.072 135.07 160.224 136.734 160.224C137.55 160.224 138.286 159.84 138.814 159.264L139.022 160H140.174ZM137.054 156.304C138.014 156.304 138.654 156.88 138.654 157.552C138.638 158.224 137.998 158.8 137.054 158.8C136.094 158.8 135.454 158.224 135.454 157.552C135.454 156.88 136.094 156.304 137.054 156.304ZM147.864 152.032C145.656 152.032 144.184 153.648 144.184 156.08C144.184 158.528 145.656 160.16 147.864 160.16C148.888 160.16 149.768 159.76 150.376 159.072L150.6 160H151.816V149.12H150.216V152.944C149.624 152.368 148.808 152.032 147.864 152.032ZM148.024 153.408C149.336 153.408 150.216 154.48 150.216 156.096C150.216 157.712 149.336 158.784 148.024 158.784C146.696 158.784 145.816 157.696 145.816 156.08C145.816 154.48 146.696 153.408 148.024 153.408ZM156.064 160.16C157.792 160.16 158.896 159.488 159.616 158.144L158.416 157.392C157.904 158.192 157.328 158.784 156.064 158.784C154.736 158.784 153.936 157.92 153.888 156.56H159.872C159.888 156.4 159.904 156.272 159.904 156.112C159.904 153.664 158.368 152.032 156.064 152.032C153.776 152.032 152.24 153.664 152.24 156.112C152.24 158.544 153.776 160.16 156.064 160.16ZM156.064 153.328C157.248 153.328 157.952 154.064 158.176 155.184H153.92C154.08 154.064 154.88 153.328 156.064 153.328ZM167.539 153.408C168.547 153.44 169.155 153.904 169.619 154.864L170.787 154.304C170.115 152.672 168.899 152.032 167.411 152.032C165.123 152.032 163.587 153.696 163.587 156.096C163.587 158.496 164.963 160.16 167.411 160.16C168.899 160.16 170.115 159.52 170.787 157.888L169.619 157.328C169.155 158.288 168.547 158.784 167.539 158.784C166.051 158.784 165.219 157.696 165.219 156.08C165.219 154.448 166.051 153.36 167.539 153.408ZM174.674 152.032C172.29 152.032 170.69 153.664 170.69 156.112C170.69 158.544 172.29 160.16 174.674 160.16C177.074 160.16 178.674 158.544 178.674 156.112C178.674 153.664 177.074 152.032 174.674 152.032ZM174.674 158.624C173.266 158.624 172.322 157.616 172.322 156.096C172.322 154.576 173.266 153.568 174.674 153.568C176.098 153.568 177.042 154.592 177.042 156.112C177.042 157.616 176.098 158.624 174.674 158.624ZM183.562 152.032C182.458 152.032 181.418 152.48 180.586 153.28L180.314 152.192H179.098V160H180.698V154.768C181.242 154.096 182.186 153.6 183.066 153.6C183.754 153.6 184.33 153.904 184.33 155.008V160H185.93V155.344C185.93 153.68 185.77 152.032 183.562 152.032ZM186.559 154.368C186.559 155.808 187.423 156.336 188.959 156.736C190.191 157.056 190.527 157.376 190.527 157.872C190.527 158.336 190.063 158.784 189.455 158.784C188.607 158.784 188.159 158.448 187.567 157.664L186.351 158.464C187.039 159.696 188.175 160.16 189.263 160.16C190.719 160.16 192.047 159.232 192.047 157.696C192.047 156.528 191.327 155.856 189.455 155.408C188.351 155.152 188.015 154.784 188.015 154.32C188.015 153.792 188.527 153.472 189.071 153.472C189.935 153.472 190.511 153.936 190.815 154.32L192.047 153.408C191.519 152.672 190.559 152.032 189.247 152.032C187.567 152.032 186.559 153.088 186.559 154.368ZM196.537 158.496C196.313 158.56 196.057 158.608 195.689 158.608C195.225 158.608 194.873 158.32 194.873 157.712V153.664H196.537V152.192H194.873V150.432H193.577L193.273 152.192H192.073V153.664H193.273V157.68C193.273 159.376 194.121 160.144 195.497 160.144C195.977 160.144 196.201 160.064 196.537 159.984V158.496ZM198.202 152.192H196.986V160H198.586V154.416C198.922 153.872 199.514 153.616 200.65 153.616H201.146V152.176C200.986 152.08 200.682 152.032 200.362 152.032C199.594 152.032 198.81 152.576 198.362 153.088L198.202 152.192ZM203.913 160.16C204.953 160.16 205.945 159.712 206.745 158.928L207.001 160H208.217V152.192H206.617V157.424C206.073 158.096 205.129 158.592 204.249 158.592C203.561 158.592 202.985 158.288 202.985 157.184V152.192H201.385V156.848C201.385 158.512 201.561 160.16 203.913 160.16ZM208.907 149.792C208.907 150.4 209.307 150.832 209.947 150.832C210.571 150.832 210.987 150.4 210.987 149.792C210.987 149.168 210.571 148.736 209.947 148.736C209.307 148.736 208.907 149.168 208.907 149.792ZM210.747 160V152.192H209.147V160H210.747ZM212.902 152.192H211.686V160H213.286V154.416C213.622 153.872 214.214 153.616 215.35 153.616H215.846V152.176C215.686 152.08 215.382 152.032 215.062 152.032C214.294 152.032 213.51 152.576 213.062 153.088L212.902 152.192ZM223.415 152.032C221.031 152.032 219.431 153.664 219.431 156.112C219.431 158.544 221.031 160.16 223.415 160.16C225.815 160.16 227.415 158.544 227.415 156.112C227.415 153.664 225.815 152.032 223.415 152.032ZM223.415 158.624C222.007 158.624 221.063 157.616 221.063 156.096C221.063 154.576 222.007 153.568 223.415 153.568C224.839 153.568 225.783 154.592 225.783 156.112C225.783 157.616 224.839 158.624 223.415 158.624ZM40.19 178.368C40.19 179.808 41.054 180.336 42.59 180.736C43.822 181.056 44.158 181.376 44.158 181.872C44.158 182.336 43.694 182.784 43.086 182.784C42.238 182.784 41.79 182.448 41.198 181.664L39.982 182.464C40.67 183.696 41.806 184.16 42.894 184.16C44.35 184.16 45.678 183.232 45.678 181.696C45.678 180.528 44.958 179.856 43.086 179.408C41.982 179.152 41.646 178.784 41.646 178.32C41.646 177.792 42.158 177.472 42.702 177.472C43.566 177.472 44.142 177.936 44.446 178.32L45.678 177.408C45.15 176.672 44.19 176.032 42.878 176.032C41.198 176.032 40.19 177.088 40.19 178.368ZM49.5643 184.16C51.2923 184.16 52.3963 183.488 53.1163 182.144L51.9163 181.392C51.4043 182.192 50.8283 182.784 49.5643 182.784C48.2363 182.784 47.4363 181.92 47.3883 180.56H53.3723C53.3883 180.4 53.4043 180.272 53.4043 180.112C53.4043 177.664 51.8683 176.032 49.5643 176.032C47.2763 176.032 45.7403 177.664 45.7403 180.112C45.7403 182.544 47.2763 184.16 49.5643 184.16ZM49.5643 177.328C50.7483 177.328 51.4523 178.064 51.6763 179.184H47.4203C47.5803 178.064 48.3803 177.328 49.5643 177.328ZM56.1907 184.16C57.2307 184.16 58.2227 183.712 59.0227 182.928L59.2787 184H60.4947V176.192H58.8947V181.424C58.3507 182.096 57.4067 182.592 56.5267 182.592C55.8387 182.592 55.2627 182.288 55.2627 181.184V176.192H53.6627V180.848C53.6627 182.512 53.8387 184.16 56.1907 184.16ZM65.6537 184H67.2537V177.664H68.7577V176.192H67.2537V175.552C67.2537 174.8 67.7177 174.528 68.1817 174.528C68.4857 174.528 68.6777 174.56 68.9177 174.608V173.12C68.5817 173.04 68.3577 172.96 67.8777 172.96C66.5017 172.96 65.6537 173.728 65.6537 175.424V176.192H64.4537V177.664H65.6537V184ZM71.6094 184.16C72.6494 184.16 73.6414 183.712 74.4414 182.928L74.6974 184H75.9134V176.192H74.3134V181.424C73.7694 182.096 72.8254 182.592 71.9454 182.592C71.2574 182.592 70.6814 182.288 70.6814 181.184V176.192H69.0814V180.848C69.0814 182.512 69.2574 184.16 71.6094 184.16ZM80.6842 182.496C80.4602 182.56 80.2042 182.608 79.8362 182.608C79.3722 182.608 79.0202 182.32 79.0202 181.712V177.664H80.6842V176.192H79.0202V174.432H77.7242L77.4202 176.192H76.2202V177.664H77.4202V181.68C77.4202 183.376 78.2682 184.144 79.6442 184.144C80.1242 184.144 80.3482 184.064 80.6842 183.984V182.496ZM83.6125 184.16C84.6525 184.16 85.6445 183.712 86.4445 182.928L86.7005 184H87.9165V176.192H86.3165V181.424C85.7725 182.096 84.8285 182.592 83.9485 182.592C83.2605 182.592 82.6845 182.288 82.6845 181.184V176.192H81.0845V180.848C81.0845 182.512 81.2605 184.16 83.6125 184.16ZM89.9673 176.192H88.7513V184H90.3513V178.416C90.6873 177.872 91.2793 177.616 92.4153 177.616H92.9113V176.176C92.7513 176.08 92.4473 176.032 92.1273 176.032C91.3593 176.032 90.5753 176.576 90.1273 177.088L89.9673 176.192ZM96.3618 176.032C93.9778 176.032 92.3778 177.664 92.3778 180.112C92.3778 182.544 93.9778 184.16 96.3618 184.16C98.7618 184.16 100.362 182.544 100.362 180.112C100.362 177.664 98.7618 176.032 96.3618 176.032ZM96.3618 182.624C94.9538 182.624 94.0098 181.616 94.0098 180.096C94.0098 178.576 94.9538 177.568 96.3618 177.568C97.7858 177.568 98.7298 178.592 98.7298 180.112C98.7298 181.616 97.7858 182.624 96.3618 182.624ZM108.884 176.032C107.78 176.032 106.74 176.48 105.908 177.28L105.636 176.192H104.42V184H106.02V178.768C106.564 178.096 107.508 177.6 108.388 177.6C109.076 177.6 109.652 177.904 109.652 179.008V184H111.252V179.344C111.252 177.68 111.092 176.032 108.884 176.032ZM117.977 184V179.248C117.977 177.248 117.017 176.032 115.177 176.032C113.961 176.032 113.321 176.256 112.281 176.672L112.761 177.904C113.529 177.568 114.265 177.44 114.857 177.44C115.977 177.44 116.377 178.112 116.377 178.768V179.392C115.977 179.104 115.401 178.88 114.569 178.88C113.017 178.88 111.625 179.92 111.625 181.552C111.625 183.072 112.873 184.224 114.537 184.224C115.353 184.224 116.089 183.84 116.617 183.264L116.825 184H117.977ZM114.857 180.304C115.817 180.304 116.457 180.88 116.457 181.552C116.441 182.224 115.801 182.8 114.857 182.8C113.897 182.8 113.257 182.224 113.257 181.552C113.257 180.88 113.897 180.304 114.857 180.304ZM126.787 176.032C125.683 176.032 124.643 176.48 123.811 177.28L123.539 176.192H122.323V184H123.923V178.768C124.467 178.096 125.411 177.6 126.291 177.6C126.979 177.6 127.555 177.904 127.555 179.008V184H129.155V179.344C129.155 177.68 128.995 176.032 126.787 176.032ZM133.512 176.032C131.128 176.032 129.528 177.664 129.528 180.112C129.528 182.544 131.128 184.16 133.512 184.16C135.912 184.16 137.512 182.544 137.512 180.112C137.512 177.664 135.912 176.032 133.512 176.032ZM133.512 182.624C132.104 182.624 131.16 181.616 131.16 180.096C131.16 178.576 132.104 177.568 133.512 177.568C134.936 177.568 135.88 178.592 135.88 180.112C135.88 181.616 134.936 182.624 133.512 182.624ZM137.778 178.368C137.778 179.808 138.642 180.336 140.178 180.736C141.41 181.056 141.746 181.376 141.746 181.872C141.746 182.336 141.282 182.784 140.674 182.784C139.826 182.784 139.378 182.448 138.786 181.664L137.57 182.464C138.258 183.696 139.394 184.16 140.482 184.16C141.938 184.16 143.266 183.232 143.266 181.696C143.266 180.528 142.546 179.856 140.674 179.408C139.57 179.152 139.234 178.784 139.234 178.32C139.234 177.792 139.746 177.472 140.29 177.472C141.154 177.472 141.73 177.936 142.034 178.32L143.266 177.408C142.738 176.672 141.778 176.032 140.466 176.032C138.786 176.032 137.778 177.088 137.778 178.368ZM143.506 178.368C143.506 179.808 144.37 180.336 145.906 180.736C147.138 181.056 147.474 181.376 147.474 181.872C147.474 182.336 147.01 182.784 146.402 182.784C145.554 182.784 145.106 182.448 144.514 181.664L143.298 182.464C143.986 183.696 145.122 184.16 146.21 184.16C147.666 184.16 148.994 183.232 148.994 181.696C148.994 180.528 148.274 179.856 146.402 179.408C145.298 179.152 144.962 178.784 144.962 178.32C144.962 177.792 145.474 177.472 146.018 177.472C146.882 177.472 147.458 177.936 147.762 178.32L148.994 177.408C148.466 176.672 147.506 176.032 146.194 176.032C144.514 176.032 143.506 177.088 143.506 178.368ZM155.252 184V179.248C155.252 177.248 154.292 176.032 152.452 176.032C151.236 176.032 150.596 176.256 149.556 176.672L150.036 177.904C150.804 177.568 151.54 177.44 152.132 177.44C153.252 177.44 153.652 178.112 153.652 178.768V179.392C153.252 179.104 152.676 178.88 151.844 178.88C150.292 178.88 148.9 179.92 148.9 181.552C148.9 183.072 150.148 184.224 151.812 184.224C152.628 184.224 153.364 183.84 153.892 183.264L154.1 184H155.252ZM152.132 180.304C153.092 180.304 153.732 180.88 153.732 181.552C153.716 182.224 153.076 182.8 152.132 182.8C151.172 182.8 150.532 182.224 150.532 181.552C150.532 180.88 151.172 180.304 152.132 180.304ZM169.982 179.2C169.982 178.976 169.934 178.608 169.87 178.432H164.526V179.936H168.334C167.902 181.536 166.398 182.624 164.622 182.624C162.414 182.624 160.75 180.912 160.75 178.56C160.75 176.208 162.414 174.496 164.622 174.496C165.934 174.496 167.054 174.88 168.03 176.224L169.598 175.76C168.59 174.048 167.102 172.96 164.622 172.96C161.47 172.96 159.118 175.328 159.118 178.56C159.118 181.776 161.47 184.16 164.622 184.16C167.678 184.16 169.982 181.92 169.982 179.2ZM171.839 176.192H170.623V184H172.223V178.416C172.559 177.872 173.151 177.616 174.287 177.616H174.783V176.176C174.623 176.08 174.319 176.032 173.999 176.032C173.231 176.032 172.447 176.576 171.999 177.088L171.839 176.192ZM180.68 184V179.248C180.68 177.248 179.72 176.032 177.88 176.032C176.664 176.032 176.024 176.256 174.984 176.672L175.464 177.904C176.232 177.568 176.968 177.44 177.56 177.44C178.68 177.44 179.08 178.112 179.08 178.768V179.392C178.68 179.104 178.104 178.88 177.272 178.88C175.72 178.88 174.328 179.92 174.328 181.552C174.328 183.072 175.576 184.224 177.24 184.224C178.056 184.224 178.792 183.84 179.32 183.264L179.528 184H180.68ZM177.56 180.304C178.52 180.304 179.16 180.88 179.16 181.552C179.144 182.224 178.504 182.8 177.56 182.8C176.6 182.8 175.96 182.224 175.96 181.552C175.96 180.88 176.6 180.304 177.56 180.304ZM184.814 176.032C182.606 176.032 181.134 177.648 181.134 180.08C181.134 182.528 182.606 184.16 184.814 184.16C185.838 184.16 186.718 183.76 187.326 183.072L187.55 184H188.766V173.12H187.166V176.944C186.574 176.368 185.758 176.032 184.814 176.032ZM184.974 177.408C186.286 177.408 187.166 178.48 187.166 180.096C187.166 181.712 186.286 182.784 184.974 182.784C183.646 182.784 182.766 181.696 182.766 180.08C182.766 178.48 183.646 177.408 184.974 177.408ZM192.006 184.16C193.046 184.16 194.038 183.712 194.838 182.928L195.094 184H196.31V176.192H194.71V181.424C194.166 182.096 193.222 182.592 192.342 182.592C191.654 182.592 191.078 182.288 191.078 181.184V176.192H189.478V180.848C189.478 182.512 189.654 184.16 192.006 184.16ZM203.005 184V179.248C203.005 177.248 202.045 176.032 200.205 176.032C198.989 176.032 198.349 176.256 197.309 176.672L197.789 177.904C198.557 177.568 199.293 177.44 199.885 177.44C201.005 177.44 201.405 178.112 201.405 178.768V179.392C201.005 179.104 200.429 178.88 199.597 178.88C198.045 178.88 196.653 179.92 196.653 181.552C196.653 183.072 197.901 184.224 199.565 184.224C200.381 184.224 201.117 183.84 201.645 183.264L201.853 184H203.005ZM199.885 180.304C200.845 180.304 201.485 180.88 201.485 181.552C201.469 182.224 200.829 182.8 199.885 182.8C198.925 182.8 198.285 182.224 198.285 181.552C198.285 180.88 198.925 180.304 199.885 180.304ZM207.155 187.248C208.067 187.248 208.835 186.736 208.835 185.856C208.835 185.232 208.483 184.704 207.523 184.624L207.683 184.144C208.979 184.032 210.051 183.376 210.659 181.888L209.491 181.328C209.027 182.288 208.419 182.784 207.411 182.784C205.923 182.784 205.091 181.696 205.091 180.08C205.091 178.448 205.923 177.36 207.411 177.408C208.419 177.44 209.027 177.904 209.491 178.864L210.659 178.304C209.987 176.672 208.771 176.032 207.283 176.032C204.995 176.032 203.459 177.696 203.459 180.096C203.459 182.288 204.611 183.872 206.691 184.128L206.275 185.408H206.899C207.683 185.408 207.907 185.552 207.907 185.888C207.907 186.128 207.699 186.352 206.995 186.352C206.579 186.352 206.259 186.224 205.987 186.08L205.555 186.784C205.971 187.056 206.483 187.248 207.155 187.248ZM214.804 174.88C215.828 174.88 216.308 174.208 216.692 173.44L215.62 172.912C215.316 173.408 215.124 173.728 214.628 173.728C213.94 173.728 213.78 173.136 212.82 173.136C211.796 173.136 211.316 173.776 210.932 174.544L212.004 175.072C212.308 174.576 212.5 174.352 212.996 174.352C213.684 174.352 213.844 174.88 214.804 174.88ZM216.836 184V179.248C216.836 177.248 215.876 176.032 214.036 176.032C212.82 176.032 212.18 176.256 211.14 176.672L211.62 177.904C212.388 177.568 213.124 177.44 213.716 177.44C214.836 177.44 215.236 178.112 215.236 178.768V179.392C214.836 179.104 214.26 178.88 213.428 178.88C211.876 178.88 210.484 179.92 210.484 181.552C210.484 183.072 211.732 184.224 213.396 184.224C214.212 184.224 214.948 183.84 215.476 183.264L215.684 184H216.836ZM213.716 180.304C214.676 180.304 215.316 180.88 215.316 181.552C215.3 182.224 214.66 182.8 213.716 182.8C212.756 182.8 212.116 182.224 212.116 181.552C212.116 180.88 212.756 180.304 213.716 180.304ZM221.274 176.032C218.89 176.032 217.29 177.664 217.29 180.112C217.29 182.544 218.89 184.16 221.274 184.16C223.674 184.16 225.274 182.544 225.274 180.112C225.274 177.664 223.674 176.032 221.274 176.032ZM221.274 182.624C219.866 182.624 218.922 181.616 218.922 180.096C218.922 178.576 219.866 177.568 221.274 177.568C222.698 177.568 223.642 178.592 223.642 180.112C223.642 181.616 222.698 182.624 221.274 182.624ZM39.79 202.56C39.79 205.776 42.206 208.16 45.454 208.16C48.67 208.16 51.07 205.776 51.07 202.56C51.07 199.328 48.67 196.96 45.454 196.96C42.206 196.96 39.79 199.328 39.79 202.56ZM41.422 202.56C41.422 200.208 43.15 198.496 45.454 198.496C47.742 198.496 49.438 200.208 49.438 202.56C49.438 204.912 47.742 206.624 45.454 206.624C43.15 206.624 41.422 204.912 41.422 202.56ZM55.8997 200.032C54.7957 200.032 53.7557 200.48 52.9237 201.28L52.6517 200.192H51.4357V208H53.0357V202.768C53.5797 202.096 54.5237 201.6 55.4037 201.6C56.0917 201.6 56.6677 201.904 56.6677 203.008V208H58.2677V203.344C58.2677 201.68 58.1077 200.032 55.8997 200.032ZM61.3123 207.92V206.64C60.8803 206.64 60.4963 206.448 60.4963 205.792V197.12H58.9283V206.352C58.9283 207.472 59.5203 208.08 60.3523 208.08C60.7043 208.08 61.0403 208.032 61.3123 207.92ZM61.6698 197.792C61.6698 198.4 62.0698 198.832 62.7098 198.832C63.3338 198.832 63.7498 198.4 63.7498 197.792C63.7498 197.168 63.3338 196.736 62.7098 196.736C62.0698 196.736 61.6698 197.168 61.6698 197.792ZM63.5098 208V200.192H61.9098V208H63.5098ZM68.9122 200.032C67.8082 200.032 66.7682 200.48 65.9362 201.28L65.6642 200.192H64.4482V208H66.0482V202.768C66.5922 202.096 67.5362 201.6 68.4162 201.6C69.1042 201.6 69.6802 201.904 69.6802 203.008V208H71.2802V203.344C71.2802 201.68 71.1202 200.032 68.9122 200.032ZM75.4768 208.16C77.2048 208.16 78.3088 207.488 79.0288 206.144L77.8288 205.392C77.3168 206.192 76.7408 206.784 75.4768 206.784C74.1488 206.784 73.3488 205.92 73.3008 204.56H79.2848C79.3008 204.4 79.3168 204.272 79.3168 204.112C79.3168 201.664 77.7808 200.032 75.4768 200.032C73.1888 200.032 71.6528 201.664 71.6528 204.112C71.6528 206.544 73.1888 208.16 75.4768 208.16ZM75.4768 201.328C76.6608 201.328 77.3648 202.064 77.5888 203.184H73.3328C73.4928 202.064 74.2928 201.328 75.4768 201.328Z" fill="#111110"/>
<rect x="40" y="251" width="328" height="55" rx="4" fill="#111111"/>
<path d="M134.157 269.13H131.457V282H134.157V269.13ZM141.722 272.514C140.462 272.514 139.31 273.072 138.392 273.828L138.068 272.748H136.07V282H138.77V276.114C139.364 275.538 140.156 275.16 140.876 275.16C141.524 275.16 141.956 275.412 141.956 276.474V282H144.656V276.366C144.656 274.404 144.242 272.514 141.722 272.514ZM149.991 278.706L147.975 272.748H145.185L148.695 282H151.305L154.635 272.748H151.917L149.991 278.706ZM163.841 277.356C163.841 274.62 162.041 272.514 159.215 272.514C156.443 272.514 154.607 274.53 154.607 277.374C154.607 280.29 156.443 282.18 159.215 282.18C161.231 282.18 162.725 281.316 163.517 279.804L161.681 278.778C161.195 279.516 160.565 280.074 159.359 280.074C158.045 280.074 157.235 279.372 157.109 278.148H163.787C163.823 277.95 163.841 277.68 163.841 277.356ZM159.233 274.62C160.421 274.62 161.105 275.286 161.321 276.312H157.109C157.307 275.268 158.081 274.62 159.233 274.62ZM168.28 282.27C170.35 282.27 171.916 281.064 171.916 279.246C171.916 277.68 170.998 276.816 168.712 276.276C167.362 275.952 167.002 275.718 167.002 275.322C167.002 274.926 167.452 274.692 168.01 274.692C168.982 274.692 169.774 275.124 170.296 275.628L171.988 274.188C171.196 273.252 169.99 272.46 168.244 272.46C166.012 272.46 164.662 273.846 164.662 275.484C164.662 277.068 165.58 277.896 167.542 278.382C169.108 278.778 169.45 279.012 169.45 279.444C169.45 279.822 169.072 280.11 168.496 280.11C167.578 280.11 166.84 279.768 166.012 278.868L164.464 280.326C165.508 281.748 166.804 282.27 168.28 282.27ZM178.642 272.748H176.59V270.534H174.412L173.872 272.748H172.45V275.232H173.89V278.94C173.89 281.208 175.114 282.162 177.13 282.162C177.76 282.162 178.174 282.072 178.642 281.928V279.408C178.408 279.498 178.066 279.57 177.67 279.57C177.022 279.57 176.59 279.228 176.59 278.382V275.232H178.642V272.748ZM179.662 269.832C179.662 270.786 180.292 271.416 181.264 271.416C182.218 271.416 182.848 270.786 182.848 269.832C182.848 268.878 182.218 268.23 181.264 268.23C180.292 268.23 179.662 268.878 179.662 269.832ZM182.614 272.748H179.914V282H182.614V272.748ZM188.998 272.514C188.098 272.514 187.198 273.126 186.64 273.72L186.37 272.748H184.372V282H187.072V275.79C187.558 275.34 188.296 275.142 189.322 275.142H189.934V272.694C189.736 272.586 189.394 272.514 188.998 272.514ZM201.068 272.514C199.808 272.514 198.656 273.072 197.738 273.828L197.414 272.748H195.416V282H198.116V276.114C198.71 275.538 199.502 275.16 200.222 275.16C200.87 275.16 201.302 275.412 201.302 276.474V282H204.002V276.366C204.002 274.404 203.588 272.514 201.068 272.514ZM209.404 272.514C208.09 272.514 206.812 272.874 205.714 273.414L206.488 275.358C207.442 274.908 208.342 274.764 209.026 274.764C210.106 274.764 210.556 275.358 210.556 276.042V276.6C209.998 276.204 209.278 276.006 208.396 276.006C206.47 276.006 204.994 277.212 204.994 279.138C204.994 281.01 206.344 282.252 208.378 282.252C209.44 282.252 210.286 281.946 210.862 281.37L211.06 282H213.256V276.15C213.256 274.008 211.96 272.514 209.404 272.514ZM209.188 280.29C208.342 280.29 207.802 279.84 207.802 279.138C207.802 278.436 208.342 277.968 209.188 277.968C210.034 277.968 210.574 278.436 210.574 279.138C210.574 279.84 210.034 280.29 209.188 280.29ZM223.461 282.234C225.459 282.234 227.079 281.1 227.745 279.426L225.297 278.346C224.937 279.138 224.361 279.588 223.461 279.588C222.309 279.588 221.445 278.76 221.445 277.356C221.445 275.97 222.309 275.124 223.461 275.124C224.361 275.124 224.937 275.592 225.297 276.402L227.745 275.322C227.079 273.612 225.477 272.514 223.461 272.514C220.617 272.514 218.745 274.548 218.745 277.356C218.745 280.2 220.617 282.234 223.461 282.234ZM232.447 272.514C231.133 272.514 229.855 272.874 228.757 273.414L229.531 275.358C230.485 274.908 231.385 274.764 232.069 274.764C233.149 274.764 233.599 275.358 233.599 276.042V276.6C233.041 276.204 232.321 276.006 231.439 276.006C229.513 276.006 228.037 277.212 228.037 279.138C228.037 281.01 229.387 282.252 231.421 282.252C232.483 282.252 233.329 281.946 233.905 281.37L234.103 282H236.299V276.15C236.299 274.008 235.003 272.514 232.447 272.514ZM232.231 280.29C231.385 280.29 230.845 279.84 230.845 279.138C230.845 278.436 231.385 277.968 232.231 277.968C233.077 277.968 233.617 278.436 233.617 279.138C233.617 279.84 233.077 280.29 232.231 280.29ZM242.549 272.514C241.649 272.514 240.749 273.126 240.191 273.72L239.921 272.748H237.923V282H240.623V275.79C241.109 275.34 241.847 275.142 242.873 275.142H243.485V272.694C243.287 272.586 242.945 272.514 242.549 272.514ZM249.187 272.514C248.287 272.514 247.387 273.126 246.829 273.72L246.559 272.748H244.561V282H247.261V275.79C247.747 275.34 248.485 275.142 249.511 275.142H250.123V272.694C249.925 272.586 249.583 272.514 249.187 272.514ZM259.471 277.356C259.471 274.62 257.671 272.514 254.845 272.514C252.073 272.514 250.237 274.53 250.237 277.374C250.237 280.29 252.073 282.18 254.845 282.18C256.861 282.18 258.355 281.316 259.147 279.804L257.311 278.778C256.825 279.516 256.195 280.074 254.989 280.074C253.675 280.074 252.865 279.372 252.739 278.148H259.417C259.453 277.95 259.471 277.68 259.471 277.356ZM254.863 274.62C256.051 274.62 256.735 275.286 256.951 276.312H252.739C252.937 275.268 253.711 274.62 254.863 274.62ZM260.434 269.832C260.434 270.786 261.064 271.416 262.036 271.416C262.99 271.416 263.62 270.786 263.62 269.832C263.62 268.878 262.99 268.23 262.036 268.23C261.064 268.23 260.434 268.878 260.434 269.832ZM263.386 272.748H260.686V282H263.386V272.748ZM269.77 272.514C268.87 272.514 267.97 273.126 267.412 273.72L267.142 272.748H265.144V282H267.844V275.79C268.33 275.34 269.068 275.142 270.094 275.142H270.706V272.694C270.508 272.586 270.166 272.514 269.77 272.514ZM275.177 272.514C273.863 272.514 272.585 272.874 271.487 273.414L272.261 275.358C273.215 274.908 274.115 274.764 274.799 274.764C275.879 274.764 276.329 275.358 276.329 276.042V276.6C275.771 276.204 275.051 276.006 274.169 276.006C272.243 276.006 270.767 277.212 270.767 279.138C270.767 281.01 272.117 282.252 274.151 282.252C275.213 282.252 276.059 281.946 276.635 281.37L276.833 282H279.029V276.15C279.029 274.008 277.733 272.514 275.177 272.514ZM274.961 280.29C274.115 280.29 273.575 279.84 273.575 279.138C273.575 278.436 274.115 277.968 274.961 277.968C275.807 277.968 276.347 278.436 276.347 279.138C276.347 279.84 275.807 280.29 274.961 280.29Z" fill="white"/>
<path d="M47.492 76.4C51.944 76.4 54.94 73.544 54.94 69.036C54.94 64.556 51.944 61.7 47.492 61.7H39.82V82H44.608V76.4H47.492ZM47.156 66.292C49.06 66.292 50.152 67.216 50.152 69.036C50.152 70.828 49.06 71.808 47.156 71.808H44.608V66.292H47.156ZM62.7078 65.62L67.4118 61.28L65.1998 59.068L60.5238 63.352L62.7078 65.62ZM62.6798 67.048C58.1158 67.048 55.0078 70.296 55.0078 74.72C55.0078 79.172 58.1158 82.392 62.6798 82.392C67.2438 82.392 70.3798 79.172 70.3798 74.72C70.3798 70.296 67.2438 67.048 62.6798 67.048ZM62.6798 78.052C60.8878 78.052 59.6838 76.68 59.6838 74.692C59.6838 72.732 60.8878 71.388 62.6798 71.388C64.4998 71.388 65.7038 72.732 65.7038 74.692C65.7038 76.68 64.4998 78.052 62.6798 78.052ZM71.5455 71.78C71.5455 74.216 72.8895 75.728 75.8295 76.344C78.3775 76.904 79.0495 77.268 79.0495 77.912C79.0495 78.472 78.4335 78.836 77.6775 78.836C76.3055 78.836 75.1295 78.388 73.7015 76.904L71.2095 79.396C72.9175 81.552 74.8215 82.476 77.2855 82.476C80.7575 82.476 83.1935 80.544 83.1935 77.716C83.1935 75.028 81.4855 73.656 77.8455 72.872C75.9975 72.48 75.5495 72.144 75.5495 71.584C75.5495 70.996 76.1375 70.66 77.0895 70.66C78.5455 70.66 79.7495 71.276 80.5615 72.06L83.2215 69.596C81.9895 68.14 80.1135 66.936 77.3975 66.936C73.7575 66.936 71.5455 69.148 71.5455 71.78ZM93.5874 75.728V71.472H84.4034V75.728H93.5874ZM114.852 73.04C114.852 72.284 114.796 71.612 114.628 70.94H104.604V75.112H110.344C109.56 77.156 107.544 78.024 105.108 78.024C101.664 78.024 99.6197 75.252 99.6197 71.864C99.6197 68.532 101.664 65.9 105.108 65.9C107.46 65.9 109.28 67.132 110.092 69.26L114.46 67.58C113.144 63.408 109.728 61.28 105.08 61.28C99.0877 61.28 94.7197 65.648 94.7197 71.864C94.7197 78.052 99.0877 82.42 105.08 82.42C110.12 82.42 114.852 79.088 114.852 73.04ZM120.233 67.44H116.677V82H121.297V72.452C122.109 71.808 123.341 71.528 124.965 71.528H125.917V67.328C125.609 67.132 125.077 67.048 124.461 67.048C123.033 67.048 121.549 67.972 120.597 68.84L120.233 67.44ZM139.322 82V73.124C139.322 69.344 137.166 67.048 132.938 67.048C130.81 67.048 128.934 67.636 127.142 68.56L128.458 71.836C129.942 71.024 131.286 70.828 132.322 70.828C133.862 70.828 134.702 71.584 134.702 72.648V73.712C133.946 73.096 132.938 72.62 131.566 72.62C128.598 72.62 126.022 74.384 126.022 77.52C126.022 80.32 128.486 82.392 131.566 82.392C133.078 82.392 134.366 81.832 135.234 80.964L135.486 82H139.322ZM132.322 75.868C133.582 75.868 134.45 76.568 134.45 77.52C134.422 78.472 133.554 79.144 132.322 79.144C131.174 79.144 130.278 78.472 130.278 77.52C130.278 76.568 131.174 75.868 132.322 75.868ZM147.469 67.048C143.409 67.048 140.441 70.296 140.441 74.72C140.441 79.144 143.381 82.392 147.413 82.392C149.261 82.392 150.829 81.664 151.949 80.432L152.369 82H155.925V61.7H151.305V68.252C150.269 67.468 148.953 67.048 147.469 67.048ZM148.197 71.192C150.073 71.192 151.305 72.676 151.305 74.72C151.305 76.764 150.073 78.248 148.197 78.248C146.433 78.248 145.117 76.764 145.117 74.72C145.117 72.676 146.433 71.192 148.197 71.192ZM163.367 82.392C164.935 82.392 166.531 81.636 167.791 80.572L168.183 82H171.711V67.44H167.091V76.904C166.307 77.632 165.355 78.052 164.459 78.052C163.255 78.052 162.695 77.632 162.695 75.98V67.44H158.075V76.4C158.075 79.592 158.971 82.392 163.367 82.392ZM186.632 82V73.124C186.632 69.344 184.476 67.048 180.248 67.048C178.12 67.048 176.244 67.636 174.452 68.56L175.768 71.836C177.252 71.024 178.596 70.828 179.632 70.828C181.172 70.828 182.012 71.584 182.012 72.648V73.712C181.256 73.096 180.248 72.62 178.876 72.62C175.908 72.62 173.332 74.384 173.332 77.52C173.332 80.32 175.796 82.392 178.876 82.392C180.388 82.392 181.676 81.832 182.544 80.964L182.796 82H186.632ZM179.632 75.868C180.892 75.868 181.76 76.568 181.76 77.52C181.732 78.472 180.864 79.144 179.632 79.144C178.484 79.144 177.588 78.472 177.588 77.52C177.588 76.568 178.484 75.868 179.632 75.868ZM195.143 88.916C197.215 88.916 198.755 87.6 198.755 85.92C198.755 84.352 197.859 83.344 196.179 83.036L196.347 82.308C198.951 81.944 200.967 80.432 201.947 78.08L197.943 76.204C197.299 77.436 196.487 78.024 195.199 78.024C193.519 78.024 192.371 76.736 192.371 74.692C192.371 72.704 193.519 71.388 195.199 71.388C196.487 71.388 197.299 71.976 197.943 73.236L201.947 71.36C200.827 68.588 198.307 67.048 195.087 67.048C190.775 67.048 187.751 70.268 187.751 74.72C187.751 78.724 190.159 81.692 193.771 82.28L193.071 85.108H194.723C195.703 85.108 196.151 85.388 196.151 85.808C196.151 86.2 195.759 86.48 194.919 86.48C194.163 86.48 193.379 86.2 192.819 85.92L191.867 88.02C192.819 88.58 193.995 88.916 195.143 88.916ZM211.323 64.976C213.367 64.976 214.319 63.66 215.131 61.784L212.359 60.384C211.883 61.168 211.463 61.728 210.791 61.728C209.587 61.728 208.971 60.636 207.291 60.636C205.219 60.636 204.267 61.924 203.483 63.8L206.227 65.228C206.731 64.444 207.151 63.884 207.823 63.884C209.027 63.884 209.643 64.976 211.323 64.976ZM215.747 82V73.124C215.747 69.344 213.591 67.048 209.363 67.048C207.235 67.048 205.359 67.636 203.567 68.56L204.883 71.836C206.367 71.024 207.711 70.828 208.747 70.828C210.287 70.828 211.127 71.584 211.127 72.648V73.712C210.371 73.096 209.363 72.62 207.991 72.62C205.023 72.62 202.447 74.384 202.447 77.52C202.447 80.32 204.911 82.392 207.991 82.392C209.503 82.392 210.791 81.832 211.659 80.964L211.911 82H215.747ZM208.747 75.868C210.007 75.868 210.875 76.568 210.875 77.52C210.847 78.472 209.979 79.144 208.747 79.144C207.599 79.144 206.703 78.472 206.703 77.52C206.703 76.568 207.599 75.868 208.747 75.868ZM224.538 67.048C219.974 67.048 216.866 70.296 216.866 74.72C216.866 79.172 219.974 82.392 224.538 82.392C229.102 82.392 232.238 79.172 232.238 74.72C232.238 70.296 229.102 67.048 224.538 67.048ZM224.538 78.052C222.746 78.052 221.542 76.68 221.542 74.692C221.542 72.732 222.746 71.388 224.538 71.388C226.358 71.388 227.562 72.732 227.562 74.692C227.562 76.68 226.358 78.052 224.538 78.052ZM46.904 118C53.148 118 57.152 114.276 57.152 107.864C57.152 101.508 53.176 97.7 46.932 97.7H39.82V118H46.904ZM46.652 102.208C49.984 102.208 52.252 103.972 52.252 107.864C52.252 111.84 49.956 113.492 46.624 113.492H44.608V102.208H46.652ZM65.519 118.392C68.627 118.392 70.895 116.992 72.239 114.528L68.991 112.82C68.207 114.024 67.087 114.64 65.743 114.64C63.923 114.668 62.747 113.828 62.411 112.288H72.435C72.519 111.812 72.575 111.084 72.575 110.384C72.575 106.324 69.887 103.048 65.379 103.048C60.955 103.048 58.043 106.212 58.043 110.72C58.043 115.312 61.123 118.392 65.519 118.392ZM65.379 106.604C66.947 106.604 68.039 107.444 68.291 108.928H62.439C62.775 107.444 63.895 106.604 65.379 106.604ZM73.6783 107.78C73.6783 110.216 75.0223 111.728 77.9623 112.344C80.5103 112.904 81.1823 113.268 81.1823 113.912C81.1823 114.472 80.5663 114.836 79.8103 114.836C78.4383 114.836 77.2623 114.388 75.8343 112.904L73.3423 115.396C75.0503 117.552 76.9543 118.476 79.4183 118.476C82.8903 118.476 85.3263 116.544 85.3263 113.716C85.3263 111.028 83.6183 109.656 79.9783 108.872C78.1303 108.48 77.6823 108.144 77.6823 107.584C77.6823 106.996 78.2703 106.66 79.2223 106.66C80.6783 106.66 81.8823 107.276 82.6943 108.06L85.3543 105.596C84.1223 104.14 82.2463 102.936 79.5303 102.936C75.8903 102.936 73.6783 105.148 73.6783 107.78ZM93.7043 107.388C94.9923 107.388 95.8043 107.976 96.4483 109.236L100.452 107.36C99.3323 104.588 96.8123 103.048 93.5923 103.048C89.2803 103.048 86.2563 106.268 86.2563 110.72C86.2563 115.172 89.2803 118.392 93.5923 118.392C96.7843 118.392 99.3323 116.824 100.452 114.052L96.4483 112.204C95.8043 113.436 94.9923 114.024 93.7043 114.024C92.0243 114.024 90.8763 112.736 90.8763 110.692C90.8763 108.704 92.0243 107.388 93.7043 107.388ZM108.541 103.048C103.977 103.048 100.869 106.296 100.869 110.72C100.869 115.172 103.977 118.392 108.541 118.392C113.105 118.392 116.241 115.172 116.241 110.72C116.241 106.296 113.105 103.048 108.541 103.048ZM108.541 114.052C106.749 114.052 105.545 112.68 105.545 110.692C105.545 108.732 106.749 107.388 108.541 107.388C110.361 107.388 111.565 108.732 111.565 110.692C111.565 112.68 110.361 114.052 108.541 114.052ZM126.478 103.048C124.714 103.048 123.006 103.804 121.69 104.868L121.326 103.44H117.77V118H122.39V108.592C123.202 107.864 124.182 107.388 125.134 107.388C126.114 107.388 126.59 107.78 126.59 109.432V118H131.21V109.012C131.21 108.872 131.182 108.732 131.182 108.592C131.994 107.864 132.974 107.388 133.926 107.388C134.934 107.388 135.382 107.78 135.382 109.432V118H140.002V109.012C140.002 105.96 139.246 103.048 135.298 103.048C133.45 103.048 131.714 103.86 130.37 104.98C129.698 103.804 128.522 103.048 126.478 103.048ZM142.172 123.264H146.792V117.188C147.828 117.972 149.144 118.392 150.656 118.392C154.688 118.392 157.656 115.144 157.656 110.72C157.656 106.268 154.744 103.048 150.684 103.048C148.836 103.048 147.268 103.776 146.148 105.008L145.728 103.44H142.172V123.264ZM149.9 114.22C148.024 114.22 146.792 112.764 146.792 110.72C146.792 108.648 148.024 107.192 149.9 107.192C151.692 107.192 152.98 108.648 152.98 110.72C152.98 112.764 151.692 114.22 149.9 114.22ZM164.903 118.084V113.66C163.979 113.66 163.531 113.352 163.531 111.924V97.7H158.911V113.324C158.911 116.824 160.955 118.14 163.587 118.14C164.007 118.14 164.595 118.112 164.903 118.084ZM166.138 98.876C166.138 100.416 167.258 101.564 168.854 101.564C170.45 101.564 171.57 100.416 171.57 98.876C171.57 97.28 170.45 96.132 168.854 96.132C167.258 96.132 166.138 97.28 166.138 98.876ZM171.15 118V103.44H166.53V118H171.15ZM180.149 107.388C181.437 107.388 182.249 107.976 182.893 109.236L186.897 107.36C185.777 104.588 183.257 103.048 180.037 103.048C175.725 103.048 172.701 106.268 172.701 110.72C172.701 115.172 175.725 118.392 180.037 118.392C183.229 118.392 185.777 116.824 186.897 114.052L182.893 112.204C182.249 113.436 181.437 114.024 180.149 114.024C178.469 114.024 177.321 112.736 177.321 110.692C177.321 108.704 178.469 107.388 180.149 107.388ZM200.697 118V109.124C200.697 105.344 198.541 103.048 194.313 103.048C192.185 103.048 190.309 103.636 188.517 104.56L189.833 107.836C191.317 107.024 192.661 106.828 193.697 106.828C195.237 106.828 196.077 107.584 196.077 108.648V109.712C195.321 109.096 194.313 108.62 192.941 108.62C189.973 108.62 187.397 110.384 187.397 113.52C187.397 116.32 189.861 118.392 192.941 118.392C194.453 118.392 195.741 117.832 196.609 116.964L196.861 118H200.697ZM193.697 111.868C194.957 111.868 195.825 112.568 195.825 113.52C195.797 114.472 194.929 115.144 193.697 115.144C192.549 115.144 191.653 114.472 191.653 113.52C191.653 112.568 192.549 111.868 193.697 111.868Z" fill="black"/>
<mask id="mask0" mask-type="alpha" maskUnits="userSpaceOnUse" x="276" y="71" width="100" height="100">
<path fill-rule="evenodd" clip-rule="evenodd" d="M276.373 71.4492H375.125V170.202H276.373V71.4492Z" fill="white"/>
</mask>
<g mask="url(#mask0)">
<path d="M375.016 117.573C376.813 144.782 356.211 168.296 329.002 170.093C301.793 171.89 278.279 151.288 276.482 124.079C274.686 96.8689 295.287 73.3548 322.496 71.5583C349.706 69.7618 373.22 90.3632 375.016 117.573Z" fill="white"/>
</g>
<path fill-rule="evenodd" clip-rule="evenodd" d="M372.53 117.737C374.236 143.573 354.675 165.901 328.838 167.607C303.001 169.313 280.674 149.751 278.968 123.915C277.262 98.0777 296.824 75.7504 322.66 74.0445C348.497 72.3386 370.825 91.9004 372.53 117.737Z" stroke="black" stroke-width="1.8"/>
<path d="M296.662 107.675L296.062 109.742C295.632 111.289 294.599 111.962 292.964 111.752C291.32 111.541 290.719 110.659 291.149 109.112L293.673 100.22C294.122 98.6753 295.164 98.004 296.799 98.2137C298.423 98.4312 299.026 99.3045 298.595 100.851L298.019 102.887L296.704 102.718L297.28 100.682C297.513 99.8109 297.25 99.3308 296.483 99.2325C295.714 99.1423 295.211 99.5242 294.979 100.387L292.456 109.271C292.224 110.143 292.487 110.623 293.264 110.714C294.031 110.812 294.535 110.431 294.766 109.568L295.347 107.506L296.662 107.675Z" fill="black"/>
<path d="M304.235 100.367L301.898 100.067L300.454 105.168L302.764 105.465L302.486 106.48L300.166 106.182L298.723 111.283L301.06 111.583L300.771 112.605L297.119 112.136L300.881 98.8772L304.524 99.3451L304.235 100.367Z" fill="black"/>
<path fill-rule="evenodd" clip-rule="evenodd" d="M310.446 100.647C310.245 100.263 309.693 100.008 308.788 99.8921L306.204 99.5605L302.442 112.819L303.757 112.988L304.998 108.604L306.495 108.797L306.305 113.315L307.492 113.467L307.656 108.648C308.384 108.4 308.891 107.773 309.175 106.786L310.374 102.511C310.622 101.659 310.647 101.032 310.446 100.647ZM309.142 101.259C309.264 101.467 309.255 101.825 309.117 102.324L307.876 106.646C307.609 107.566 307.293 107.858 306.582 107.827L305.257 107.666L307.223 100.733L308.237 100.863C308.721 100.925 309.019 101.059 309.142 101.259Z" fill="black"/>
<path d="M317.025 100.949L316.727 101.97L314.919 101.738L311.455 113.976L310.14 113.807L313.613 101.57L311.805 101.339L312.094 100.316L317.025 100.949Z" fill="black"/>
<path d="M314.714 114.394L318.476 101.135L319.782 101.303L316.029 114.563L314.714 114.394Z" fill="black"/>
<path d="M324.817 103.008L322.479 102.708L321.03 107.852L323.368 108.152L323.08 109.166L320.742 108.865L319.015 114.946L317.7 114.777L321.462 101.518L325.106 101.986L324.817 103.008Z" fill="black"/>
<path d="M323.024 115.46L326.786 102.201L328.091 102.369L324.339 115.629L323.024 115.46Z" fill="black"/>
<path d="M332.136 112.227L331.536 114.294C331.106 115.841 330.073 116.513 328.438 116.304C326.794 116.093 326.193 115.21 326.623 113.664L329.147 104.771C329.596 103.227 330.638 102.556 332.273 102.765C333.897 102.983 334.5 103.856 334.069 105.403L333.493 107.438L332.178 107.269L332.754 105.234C332.987 104.363 332.724 103.883 331.957 103.784C331.188 103.694 330.685 104.076 330.453 104.939L327.93 113.823C327.698 114.695 327.961 115.175 328.738 115.266C329.506 115.364 330.009 114.982 330.24 114.119L330.821 112.058L332.136 112.227Z" fill="black"/>
<path fill-rule="evenodd" clip-rule="evenodd" d="M339.907 103.885L337.56 103.584L332.036 116.617L333.278 116.776L334.49 113.912L337.11 114.248L336.648 117.208L337.908 117.37L339.907 103.885ZM337.254 113.207L334.907 112.906L338.302 104.817L338.54 104.847L337.254 113.207Z" fill="black"/>
<path fill-rule="evenodd" clip-rule="evenodd" d="M347.408 105.39C347.207 105.005 346.655 104.751 345.742 104.634L343.103 104.295L339.341 117.554L341.98 117.892C342.893 118.009 343.546 117.909 343.948 117.602C344.349 117.295 344.666 116.705 344.915 115.853L347.336 107.254C347.585 106.401 347.61 105.775 347.408 105.39ZM346.065 106.014C346.189 106.214 346.18 106.571 346.041 107.079L343.608 115.694C343.467 116.21 343.286 116.537 343.062 116.692C342.838 116.847 342.488 116.898 342.004 116.836L340.945 116.7L344.119 105.485L345.179 105.621C345.645 105.68 345.943 105.815 346.065 106.014Z" fill="black"/>
<path fill-rule="evenodd" clip-rule="evenodd" d="M352.186 105.329C350.552 105.12 349.511 105.782 349.062 107.326L346.557 116.213C346.108 117.757 346.702 118.63 348.355 118.842C349.97 119.058 351.012 118.386 351.461 116.842L353.984 107.958C354.415 106.411 353.812 105.538 352.186 105.329ZM351.871 106.339C352.638 106.438 352.902 106.917 352.669 107.789L350.155 116.675C349.924 117.537 349.42 117.919 348.653 117.821C347.876 117.73 347.612 117.25 347.845 116.378L350.368 107.494C350.599 106.631 351.103 106.249 351.871 106.339Z" fill="black"/>
<path d="M359.818 110.737L358.576 110.578L359.123 108.635C359.353 107.781 359.099 107.301 358.341 107.204C357.574 107.106 357.07 107.488 356.83 108.341L356.341 110.055C355.911 111.452 357.084 112.295 357.874 113.157C358.42 113.753 358.743 114.704 358.407 115.878L357.91 117.652C357.481 119.19 356.449 119.854 354.814 119.644C353.198 119.437 352.613 118.565 353.042 117.027L353.59 115.076L354.86 115.239L354.303 117.189C354.072 118.044 354.326 118.522 355.085 118.62C355.861 118.72 356.373 118.339 356.613 117.486L357.102 115.772C357.322 115.003 357.104 114.31 356.688 113.863C356.485 113.635 356.257 113.388 356.013 113.12C355.76 112.851 355.534 112.586 355.335 112.324C355.128 112.061 354.994 111.729 354.935 111.319C354.867 110.907 354.908 110.449 355.046 109.95L355.561 108.178C355.991 106.64 357.014 105.975 358.629 106.183C360.219 106.386 360.803 107.257 360.392 108.798L359.818 110.737Z" fill="black"/>
<path fill-rule="evenodd" clip-rule="evenodd" d="M295.723 118.806C295.521 118.421 294.969 118.167 294.065 118.051L291.481 117.719L287.719 130.978L289.034 131.147L289.981 127.819L291.259 127.983C292.163 128.099 292.807 127.998 293.21 127.682C293.603 127.365 293.92 126.776 294.169 125.924L295.651 120.67C295.899 119.818 295.924 119.191 295.723 118.806ZM294.419 119.418C294.54 119.626 294.532 119.983 294.394 120.482L292.869 125.783C292.729 126.29 292.547 126.626 292.332 126.782C292.117 126.938 291.767 126.99 291.283 126.928L290.27 126.798L292.5 118.891L293.513 119.021C293.997 119.084 294.296 119.218 294.419 119.418Z" fill="black"/>
<path d="M301.373 120.047L299.035 119.748L297.592 124.849L299.902 125.145L299.624 126.16L297.304 125.862L295.86 130.963L298.198 131.263L297.909 132.286L294.257 131.817L298.018 118.558L301.662 119.026L301.373 120.047Z" fill="black"/>
<path d="M301.184 131.646L303.75 131.976L303.461 132.998L299.58 132.5L303.342 119.241L304.648 119.408L301.184 131.646Z" fill="black"/>
<path fill-rule="evenodd" clip-rule="evenodd" d="M311.066 120.101C309.431 119.891 308.39 120.554 307.941 122.098L305.436 130.984C304.988 132.528 305.581 133.401 307.234 133.613C308.849 133.829 309.891 133.158 310.34 131.614L312.863 122.729C313.293 121.183 312.691 120.309 311.066 120.101ZM310.75 121.11C311.517 121.209 311.78 121.689 311.548 122.561L309.034 131.446C308.803 132.309 308.299 132.691 307.532 132.593C306.755 132.501 306.491 132.021 306.724 131.149L309.247 122.266C309.478 121.403 309.982 121.021 310.75 121.11Z" fill="black"/>
<path d="M312.045 145.598L319.169 120.496L325.828 121.35L322.48 141.419L322.774 141.457L330.619 121.965L337.296 122.821L330.172 147.924L326.159 147.409L331.709 127.722L331.363 127.678L323.496 147.067L318.722 146.455L322.006 126.477L321.608 126.426L316.058 146.113L312.045 145.598Z" fill="black"/>
<path d="M347.076 127.573L342.89 127.035L340.787 134.521L344.869 135.045L343.932 138.371L339.85 137.847L337.723 145.38L341.84 145.908L340.895 149.3L332.402 148.21L339.526 123.107L348.019 124.197L347.076 127.573Z" fill="black"/>
<path d="M357.119 142.334L355.976 146.313C355.033 149.689 352.616 151.119 348.725 150.62C344.85 150.122 343.375 148.193 344.318 144.817L348.74 129.261C349.683 125.885 352.099 124.456 355.989 124.971C357.84 125.208 359.156 125.775 359.955 126.673C360.734 127.585 360.876 128.946 360.381 130.755L359.265 134.655L354.941 134.1L356.035 130.23C356.339 129.093 356.014 128.471 355.046 128.347C354.043 128.218 353.382 128.713 353.077 129.851L348.681 145.344C348.359 146.479 348.701 147.103 349.704 147.232C350.673 147.356 351.317 146.859 351.638 145.723L352.743 141.772L357.119 142.334Z" fill="black"/>
<path d="M320.973 86.9277L323.939 95.3536L336.813 81.7218" stroke="#00E88F" stroke-width="5"/>
</svg>
