<svg width="405" height="351" viewBox="0 0 405 351" fill="none" xmlns="http://www.w3.org/2000/svg">
<rect width="405" height="351" rx="4" fill="#239E5D"/>
<path d="M44.35 156.48C46.59 156.48 48.078 154.864 48.078 152.8C48.078 150.752 46.59 149.12 44.35 149.12H40.51V160H42.11V156.48H44.35ZM44.078 150.784C45.486 150.784 46.414 151.472 46.414 152.8C46.414 154.08 45.486 154.816 44.078 154.816H42.11V150.784H44.078ZM49.7454 152.192H48.5294V160H50.1294V154.416C50.4654 153.872 51.0574 153.616 52.1934 153.616H52.6894V152.176C52.5294 152.08 52.2254 152.032 51.9054 152.032C51.1374 152.032 50.3534 152.576 49.9054 153.088L49.7454 152.192ZM55.9799 160.16C57.7079 160.16 58.8119 159.488 59.5319 158.144L58.3319 157.392C57.8199 158.192 57.2439 158.784 55.9799 158.784C54.6519 158.784 53.8519 157.92 53.8039 156.56H59.7879C59.8039 156.4 59.8199 156.272 59.8199 156.112C59.8199 153.664 58.2839 152.032 55.9799 152.032C53.6919 152.032 52.1559 153.664 52.1559 156.112C52.1559 158.544 53.6919 160.16 55.9799 160.16ZM55.9799 153.328C57.1639 153.328 57.8679 154.064 58.0919 155.184H53.8359C53.9959 154.064 54.7959 153.328 55.9799 153.328ZM60.2825 162.8H61.8825V159.248C62.4745 159.824 63.2905 160.16 64.2345 160.16C66.4425 160.16 67.9145 158.544 67.9145 156.112C67.9145 153.664 66.4425 152.032 64.2345 152.032C63.2105 152.032 62.3305 152.432 61.7225 153.12L61.4985 152.192H60.2825V162.8ZM64.0745 158.784C62.7625 158.784 61.8825 157.712 61.8825 156.096C61.8825 154.48 62.7625 153.408 64.0745 153.408C65.4025 153.408 66.2825 154.496 66.2825 156.112C66.2825 157.712 65.4025 158.784 64.0745 158.784ZM74.1985 160V155.248C74.1985 153.248 73.2385 152.032 71.3985 152.032C70.1825 152.032 69.5425 152.256 68.5025 152.672L68.9825 153.904C69.7505 153.568 70.4865 153.44 71.0785 153.44C72.1985 153.44 72.5985 154.112 72.5985 154.768V155.392C72.1985 155.104 71.6225 154.88 70.7905 154.88C69.2385 154.88 67.8465 155.92 67.8465 157.552C67.8465 159.072 69.0945 160.224 70.7585 160.224C71.5745 160.224 72.3105 159.84 72.8385 159.264L73.0465 160H74.1985ZM71.0785 156.304C72.0385 156.304 72.6785 156.88 72.6785 157.552C72.6625 158.224 72.0225 158.8 71.0785 158.8C70.1185 158.8 69.4785 158.224 69.4785 157.552C69.4785 156.88 70.1185 156.304 71.0785 156.304ZM76.2048 152.192H74.9888V160H76.5888V154.416C76.9248 153.872 77.5168 153.616 78.6528 153.616H79.1488V152.176C78.9888 152.08 78.6848 152.032 78.3648 152.032C77.5968 152.032 76.8128 152.576 76.3648 153.088L76.2048 152.192ZM82.4393 160.16C84.1673 160.16 85.2713 159.488 85.9913 158.144L84.7913 157.392C84.2793 158.192 83.7033 158.784 82.4393 158.784C81.1113 158.784 80.3113 157.92 80.2633 156.56H86.2473C86.2633 156.4 86.2793 156.272 86.2793 156.112C86.2793 153.664 84.7433 152.032 82.4393 152.032C80.1513 152.032 78.6153 153.664 78.6153 156.112C78.6153 158.544 80.1513 160.16 82.4393 160.16ZM82.4393 153.328C83.6233 153.328 84.3273 154.064 84.5513 155.184H80.2953C80.4553 154.064 81.2553 153.328 82.4393 153.328ZM96.3142 160V155.248C96.3142 153.248 95.3542 152.032 93.5142 152.032C92.2982 152.032 91.6582 152.256 90.6182 152.672L91.0982 153.904C91.8662 153.568 92.6022 153.44 93.1942 153.44C94.3142 153.44 94.7142 154.112 94.7142 154.768V155.392C94.3142 155.104 93.7382 154.88 92.9062 154.88C91.3542 154.88 89.9622 155.92 89.9622 157.552C89.9622 159.072 91.2102 160.224 92.8742 160.224C93.6902 160.224 94.4262 159.84 94.9542 159.264L95.1622 160H96.3142ZM93.1942 156.304C94.1542 156.304 94.7942 156.88 94.7942 157.552C94.7782 158.224 94.1382 158.8 93.1942 158.8C92.2342 158.8 91.5942 158.224 91.5942 157.552C91.5942 156.88 92.2342 156.304 93.1942 156.304ZM100.581 154.368C100.581 155.808 101.445 156.336 102.981 156.736C104.213 157.056 104.549 157.376 104.549 157.872C104.549 158.336 104.085 158.784 103.477 158.784C102.629 158.784 102.181 158.448 101.589 157.664L100.373 158.464C101.061 159.696 102.197 160.16 103.285 160.16C104.741 160.16 106.069 159.232 106.069 157.696C106.069 156.528 105.349 155.856 103.477 155.408C102.373 155.152 102.037 154.784 102.037 154.32C102.037 153.792 102.549 153.472 103.093 153.472C103.957 153.472 104.533 153.936 104.837 154.32L106.069 153.408C105.541 152.672 104.581 152.032 103.269 152.032C101.589 152.032 100.581 153.088 100.581 154.368ZM108.947 160.16C109.987 160.16 110.979 159.712 111.779 158.928L112.035 160H113.251V152.192H111.651V157.424C111.107 158.096 110.163 158.592 109.283 158.592C108.595 158.592 108.019 158.288 108.019 157.184V152.192H106.419V156.848C106.419 158.512 106.595 160.16 108.947 160.16ZM119.945 160V155.248C119.945 153.248 118.985 152.032 117.145 152.032C115.929 152.032 115.289 152.256 114.249 152.672L114.729 153.904C115.497 153.568 116.233 153.44 116.825 153.44C117.945 153.44 118.345 154.112 118.345 154.768V155.392C117.945 155.104 117.369 154.88 116.537 154.88C114.985 154.88 113.593 155.92 113.593 157.552C113.593 159.072 114.841 160.224 116.505 160.224C117.321 160.224 118.057 159.84 118.585 159.264L118.793 160H119.945ZM116.825 156.304C117.785 156.304 118.425 156.88 118.425 157.552C118.409 158.224 117.769 158.8 116.825 158.8C115.865 158.8 115.225 158.224 115.225 157.552C115.225 156.88 115.865 156.304 116.825 156.304ZM127.78 160.16C129.508 160.16 130.612 159.488 131.332 158.144L130.132 157.392C129.62 158.192 129.044 158.784 127.78 158.784C126.452 158.784 125.652 157.92 125.604 156.56H131.588C131.604 156.4 131.62 156.272 131.62 156.112C131.62 153.664 130.084 152.032 127.78 152.032C125.492 152.032 123.956 153.664 123.956 156.112C123.956 158.544 125.492 160.16 127.78 160.16ZM127.78 153.328C128.964 153.328 129.668 154.064 129.892 155.184H125.636C125.796 154.064 126.596 153.328 127.78 153.328ZM131.846 154.368C131.846 155.808 132.71 156.336 134.246 156.736C135.478 157.056 135.814 157.376 135.814 157.872C135.814 158.336 135.35 158.784 134.742 158.784C133.894 158.784 133.446 158.448 132.854 157.664L131.638 158.464C132.326 159.696 133.462 160.16 134.55 160.16C136.006 160.16 137.334 159.232 137.334 157.696C137.334 156.528 136.614 155.856 134.742 155.408C133.638 155.152 133.302 154.784 133.302 154.32C133.302 153.792 133.814 153.472 134.358 153.472C135.222 153.472 135.798 153.936 136.102 154.32L137.334 153.408C136.806 152.672 135.846 152.032 134.534 152.032C132.854 152.032 131.846 153.088 131.846 154.368ZM141.349 153.408C142.357 153.44 142.965 153.904 143.429 154.864L144.597 154.304C143.925 152.672 142.709 152.032 141.221 152.032C138.933 152.032 137.397 153.696 137.397 156.096C137.397 158.496 138.773 160.16 141.221 160.16C142.709 160.16 143.925 159.52 144.597 157.888L143.429 157.328C142.965 158.288 142.357 158.784 141.349 158.784C139.861 158.784 139.029 157.696 139.029 156.08C139.029 154.448 139.861 153.36 141.349 153.408ZM148.484 152.032C146.1 152.032 144.5 153.664 144.5 156.112C144.5 158.544 146.1 160.16 148.484 160.16C150.884 160.16 152.484 158.544 152.484 156.112C152.484 153.664 150.884 152.032 148.484 152.032ZM148.484 158.624C147.076 158.624 146.132 157.616 146.132 156.096C146.132 154.576 147.076 153.568 148.484 153.568C149.908 153.568 150.852 154.592 150.852 156.112C150.852 157.616 149.908 158.624 148.484 158.624ZM155.244 159.92V158.64C154.812 158.64 154.428 158.448 154.428 157.792V149.12H152.86V158.352C152.86 159.472 153.452 160.08 154.284 160.08C154.636 160.08 154.972 160.032 155.244 159.92ZM161.605 160V155.248C161.605 153.248 160.645 152.032 158.805 152.032C157.589 152.032 156.949 152.256 155.909 152.672L156.389 153.904C157.157 153.568 157.893 153.44 158.485 153.44C159.605 153.44 160.005 154.112 160.005 154.768V155.392C159.605 155.104 159.029 154.88 158.197 154.88C156.645 154.88 155.253 155.92 155.253 157.552C155.253 159.072 156.501 160.224 158.165 160.224C158.981 160.224 159.717 159.84 160.245 159.264L160.453 160H161.605ZM158.485 156.304C159.445 156.304 160.085 156.88 160.085 157.552C160.069 158.224 159.429 158.8 158.485 158.8C157.525 158.8 156.885 158.224 156.885 157.552C156.885 156.88 157.525 156.304 158.485 156.304ZM165.951 162.8H167.551V159.248C168.143 159.824 168.959 160.16 169.903 160.16C172.111 160.16 173.583 158.544 173.583 156.112C173.583 153.664 172.111 152.032 169.903 152.032C168.879 152.032 167.999 152.432 167.391 153.12L167.167 152.192H165.951V162.8ZM169.743 158.784C168.431 158.784 167.551 157.712 167.551 156.096C167.551 154.48 168.431 153.408 169.743 153.408C171.071 153.408 171.951 154.496 171.951 156.112C171.951 157.712 171.071 158.784 169.743 158.784ZM179.867 160V155.248C179.867 153.248 178.907 152.032 177.067 152.032C175.851 152.032 175.211 152.256 174.171 152.672L174.651 153.904C175.419 153.568 176.155 153.44 176.747 153.44C177.867 153.44 178.267 154.112 178.267 154.768V155.392C177.867 155.104 177.291 154.88 176.459 154.88C174.907 154.88 173.515 155.92 173.515 157.552C173.515 159.072 174.763 160.224 176.427 160.224C177.243 160.224 177.979 159.84 178.507 159.264L178.715 160H179.867ZM176.747 156.304C177.707 156.304 178.347 156.88 178.347 157.552C178.331 158.224 177.691 158.8 176.747 158.8C175.787 158.8 175.147 158.224 175.147 157.552C175.147 156.88 175.787 156.304 176.747 156.304ZM181.874 152.192H180.658V160H182.258V154.416C182.594 153.872 183.186 153.616 184.322 153.616H184.818V152.176C184.658 152.08 184.354 152.032 184.034 152.032C183.266 152.032 182.482 152.576 182.034 153.088L181.874 152.192ZM190.714 160V155.248C190.714 153.248 189.754 152.032 187.914 152.032C186.698 152.032 186.058 152.256 185.018 152.672L185.498 153.904C186.266 153.568 187.002 153.44 187.594 153.44C188.714 153.44 189.114 154.112 189.114 154.768V155.392C188.714 155.104 188.138 154.88 187.306 154.88C185.754 154.88 184.362 155.92 184.362 157.552C184.362 159.072 185.61 160.224 187.274 160.224C188.09 160.224 188.826 159.84 189.354 159.264L189.562 160H190.714ZM187.594 156.304C188.554 156.304 189.194 156.88 189.194 157.552C189.178 158.224 188.538 158.8 187.594 158.8C186.634 158.8 185.994 158.224 185.994 157.552C185.994 156.88 186.634 156.304 187.594 156.304ZM198.709 152.032C196.325 152.032 194.725 153.664 194.725 156.112C194.725 158.544 196.325 160.16 198.709 160.16C201.109 160.16 202.709 158.544 202.709 156.112C202.709 153.664 201.109 152.032 198.709 152.032ZM198.709 158.624C197.301 158.624 196.357 157.616 196.357 156.096C196.357 154.576 197.301 153.568 198.709 153.568C200.133 153.568 201.077 154.592 201.077 156.112C201.077 157.616 200.133 158.624 198.709 158.624ZM202.974 154.368C202.974 155.808 203.838 156.336 205.374 156.736C206.606 157.056 206.942 157.376 206.942 157.872C206.942 158.336 206.478 158.784 205.87 158.784C205.022 158.784 204.574 158.448 203.982 157.664L202.766 158.464C203.454 159.696 204.59 160.16 205.678 160.16C207.134 160.16 208.462 159.232 208.462 157.696C208.462 156.528 207.742 155.856 205.87 155.408C204.766 155.152 204.43 154.784 204.43 154.32C204.43 153.792 204.942 153.472 205.486 153.472C206.35 153.472 206.926 153.936 207.23 154.32L208.462 153.408C207.934 152.672 206.974 152.032 205.662 152.032C203.982 152.032 202.974 153.088 202.974 154.368ZM43.614 176.032C41.406 176.032 39.934 177.648 39.934 180.08C39.934 182.528 41.406 184.16 43.614 184.16C44.638 184.16 45.518 183.76 46.126 183.072L46.35 184H47.566V173.12H45.966V176.944C45.374 176.368 44.558 176.032 43.614 176.032ZM43.774 177.408C45.086 177.408 45.966 178.48 45.966 180.096C45.966 181.712 45.086 182.784 43.774 182.784C42.446 182.784 41.566 181.696 41.566 180.08C41.566 178.48 42.446 177.408 43.774 177.408ZM51.8143 184.16C53.5423 184.16 54.6463 183.488 55.3663 182.144L54.1663 181.392C53.6543 182.192 53.0783 182.784 51.8143 182.784C50.4863 182.784 49.6863 181.92 49.6383 180.56H55.6223C55.6383 180.4 55.6543 180.272 55.6543 180.112C55.6543 177.664 54.1183 176.032 51.8143 176.032C49.5263 176.032 47.9903 177.664 47.9903 180.112C47.9903 182.544 49.5263 184.16 51.8143 184.16ZM51.8143 177.328C52.9983 177.328 53.7023 178.064 53.9263 179.184H49.6703C49.8303 178.064 50.6303 177.328 51.8143 177.328ZM55.8807 178.368C55.8807 179.808 56.7447 180.336 58.2807 180.736C59.5127 181.056 59.8487 181.376 59.8487 181.872C59.8487 182.336 59.3847 182.784 58.7767 182.784C57.9287 182.784 57.4807 182.448 56.8887 181.664L55.6727 182.464C56.3607 183.696 57.4967 184.16 58.5847 184.16C60.0407 184.16 61.3687 183.232 61.3687 181.696C61.3687 180.528 60.6487 179.856 58.7767 179.408C57.6727 179.152 57.3367 178.784 57.3367 178.32C57.3367 177.792 57.8487 177.472 58.3927 177.472C59.2567 177.472 59.8327 177.936 60.1367 178.32L61.3687 177.408C60.8407 176.672 59.8807 176.032 58.5687 176.032C56.8887 176.032 55.8807 177.088 55.8807 178.368ZM67.6267 184V179.248C67.6267 177.248 66.6667 176.032 64.8267 176.032C63.6107 176.032 62.9707 176.256 61.9307 176.672L62.4107 177.904C63.1787 177.568 63.9147 177.44 64.5067 177.44C65.6267 177.44 66.0267 178.112 66.0267 178.768V179.392C65.6267 179.104 65.0507 178.88 64.2187 178.88C62.6667 178.88 61.2747 179.92 61.2747 181.552C61.2747 183.072 62.5227 184.224 64.1867 184.224C65.0027 184.224 65.7387 183.84 66.2667 183.264L66.4747 184H67.6267ZM64.5067 180.304C65.4667 180.304 66.1067 180.88 66.1067 181.552C66.0907 182.224 65.4507 182.8 64.5067 182.8C63.5467 182.8 62.9067 182.224 62.9067 181.552C62.9067 180.88 63.5467 180.304 64.5067 180.304ZM68.9505 184H70.5505V177.664H72.0545V176.192H70.5505V175.552C70.5505 174.8 71.0145 174.528 71.4785 174.528C71.7825 174.528 71.9745 174.56 72.2145 174.608V173.12C71.8785 173.04 71.6545 172.96 71.1745 172.96C69.7985 172.96 68.9505 173.728 68.9505 175.424V176.192H67.7505V177.664H68.9505V184ZM72.2823 173.792C72.2823 174.4 72.6823 174.832 73.3223 174.832C73.9463 174.832 74.3623 174.4 74.3623 173.792C74.3623 173.168 73.9463 172.736 73.3223 172.736C72.6823 172.736 72.2823 173.168 72.2823 173.792ZM74.1223 184V176.192H72.5223V184H74.1223ZM78.7087 176.032C76.3247 176.032 74.7247 177.664 74.7247 180.112C74.7247 182.544 76.3247 184.16 78.7087 184.16C81.1087 184.16 82.7087 182.544 82.7087 180.112C82.7087 177.664 81.1087 176.032 78.7087 176.032ZM78.7087 182.624C77.3007 182.624 76.3567 181.616 76.3567 180.096C76.3567 178.576 77.3007 177.568 78.7087 177.568C80.1327 177.568 81.0767 178.592 81.0767 180.112C81.0767 181.616 80.1327 182.624 78.7087 182.624ZM82.9744 178.368C82.9744 179.808 83.8384 180.336 85.3744 180.736C86.6064 181.056 86.9424 181.376 86.9424 181.872C86.9424 182.336 86.4784 182.784 85.8704 182.784C85.0224 182.784 84.5744 182.448 83.9824 181.664L82.7664 182.464C83.4544 183.696 84.5904 184.16 85.6784 184.16C87.1344 184.16 88.4624 183.232 88.4624 181.696C88.4624 180.528 87.7424 179.856 85.8704 179.408C84.7664 179.152 84.4304 178.784 84.4304 178.32C84.4304 177.792 84.9424 177.472 85.4864 177.472C86.3504 177.472 86.9264 177.936 87.2304 178.32L88.4624 177.408C87.9344 176.672 86.9744 176.032 85.6624 176.032C83.9824 176.032 82.9744 177.088 82.9744 178.368ZM95.9172 176.032C93.7092 176.032 92.2372 177.648 92.2372 180.08C92.2372 182.528 93.7092 184.16 95.9172 184.16C96.9412 184.16 97.8212 183.76 98.4292 183.072L98.6532 184H99.8692V173.12H98.2692V176.944C97.6772 176.368 96.8612 176.032 95.9172 176.032ZM96.0772 177.408C97.3892 177.408 98.2692 178.48 98.2692 180.096C98.2692 181.712 97.3892 182.784 96.0772 182.784C94.7492 182.784 93.8692 181.696 93.8692 180.08C93.8692 178.48 94.7492 177.408 96.0772 177.408ZM104.277 176.032C101.893 176.032 100.293 177.664 100.293 180.112C100.293 182.544 101.893 184.16 104.277 184.16C106.677 184.16 108.277 182.544 108.277 180.112C108.277 177.664 106.677 176.032 104.277 176.032ZM104.277 182.624C102.869 182.624 101.925 181.616 101.925 180.096C101.925 178.576 102.869 177.568 104.277 177.568C105.701 177.568 106.645 178.592 106.645 180.112C106.645 181.616 105.701 182.624 104.277 182.624ZM112.336 186.8H113.936V183.248C114.528 183.824 115.344 184.16 116.288 184.16C118.496 184.16 119.968 182.544 119.968 180.112C119.968 177.664 118.496 176.032 116.288 176.032C115.264 176.032 114.384 176.432 113.776 177.12L113.552 176.192H112.336V186.8ZM116.128 182.784C114.816 182.784 113.936 181.712 113.936 180.096C113.936 178.48 114.816 177.408 116.128 177.408C117.456 177.408 118.336 178.496 118.336 180.112C118.336 181.712 117.456 182.784 116.128 182.784ZM121.608 176.192H120.392V184H121.992V178.416C122.328 177.872 122.92 177.616 124.056 177.616H124.552V176.176C124.392 176.08 124.088 176.032 123.768 176.032C123 176.032 122.216 176.576 121.768 177.088L121.608 176.192ZM127.842 184.16C129.57 184.16 130.674 183.488 131.394 182.144L130.194 181.392C129.682 182.192 129.106 182.784 127.842 182.784C126.514 182.784 125.714 181.92 125.666 180.56H131.65C131.666 180.4 131.682 180.272 131.682 180.112C131.682 177.664 130.146 176.032 127.842 176.032C125.554 176.032 124.018 177.664 124.018 180.112C124.018 182.544 125.554 184.16 127.842 184.16ZM127.842 177.328C129.026 177.328 129.73 178.064 129.954 179.184H125.698C125.858 178.064 126.658 177.328 127.842 177.328ZM131.909 178.368C131.909 179.808 132.773 180.336 134.309 180.736C135.541 181.056 135.877 181.376 135.877 181.872C135.877 182.336 135.413 182.784 134.805 182.784C133.957 182.784 133.509 182.448 132.917 181.664L131.701 182.464C132.389 183.696 133.525 184.16 134.613 184.16C136.069 184.16 137.397 183.232 137.397 181.696C137.397 180.528 136.677 179.856 134.805 179.408C133.701 179.152 133.365 178.784 133.365 178.32C133.365 177.792 133.877 177.472 134.421 177.472C135.285 177.472 135.861 177.936 136.165 178.32L137.397 177.408C136.869 176.672 135.909 176.032 134.597 176.032C132.917 176.032 131.909 177.088 131.909 178.368ZM141.283 184.16C143.011 184.16 144.115 183.488 144.835 182.144L143.635 181.392C143.123 182.192 142.547 182.784 141.283 182.784C139.955 182.784 139.155 181.92 139.107 180.56H145.091C145.107 180.4 145.123 180.272 145.123 180.112C145.123 177.664 143.587 176.032 141.283 176.032C138.995 176.032 137.459 177.664 137.459 180.112C137.459 182.544 138.995 184.16 141.283 184.16ZM141.283 177.328C142.467 177.328 143.171 178.064 143.395 179.184H139.139C139.299 178.064 140.099 177.328 141.283 177.328ZM150.05 176.032C148.946 176.032 147.906 176.48 147.074 177.28L146.802 176.192H145.586V184H147.186V178.768C147.73 178.096 148.674 177.6 149.554 177.6C150.242 177.6 150.818 177.904 150.818 179.008V184H152.418V179.344C152.418 177.68 152.258 176.032 150.05 176.032ZM157.062 182.496C156.838 182.56 156.582 182.608 156.214 182.608C155.75 182.608 155.398 182.32 155.398 181.712V177.664H157.062V176.192H155.398V174.432H154.102L153.798 176.192H152.598V177.664H153.798V181.68C153.798 183.376 154.646 184.144 156.022 184.144C156.502 184.144 156.726 184.064 157.062 183.984V182.496ZM160.842 184.16C162.57 184.16 163.674 183.488 164.394 182.144L163.194 181.392C162.682 182.192 162.106 182.784 160.842 182.784C159.514 182.784 158.714 181.92 158.666 180.56H164.65C164.666 180.4 164.682 180.272 164.682 180.112C164.682 177.664 163.146 176.032 160.842 176.032C158.554 176.032 157.018 177.664 157.018 180.112C157.018 182.544 158.554 184.16 160.842 184.16ZM160.842 177.328C162.026 177.328 162.73 178.064 162.954 179.184H158.698C158.858 178.064 159.658 177.328 160.842 177.328ZM172.189 184.16C173.917 184.16 175.021 183.488 175.741 182.144L174.541 181.392C174.029 182.192 173.453 182.784 172.189 182.784C170.861 182.784 170.061 181.92 170.013 180.56H175.997C176.013 180.4 176.029 180.272 176.029 180.112C176.029 177.664 174.493 176.032 172.189 176.032C169.901 176.032 168.365 177.664 168.365 180.112C168.365 182.544 169.901 184.16 172.189 184.16ZM172.189 177.328C173.373 177.328 174.077 178.064 174.301 179.184H170.045C170.205 178.064 171.005 177.328 172.189 177.328ZM183.392 176.032C181.184 176.032 179.712 177.648 179.712 180.08C179.712 182.528 181.184 184.16 183.392 184.16C184.416 184.16 185.296 183.76 185.904 183.072L186.128 184H187.344V173.12H185.744V176.944C185.152 176.368 184.336 176.032 183.392 176.032ZM183.552 177.408C184.864 177.408 185.744 178.48 185.744 180.096C185.744 181.712 184.864 182.784 183.552 182.784C182.224 182.784 181.344 181.696 181.344 180.08C181.344 178.48 182.224 177.408 183.552 177.408ZM191.752 176.032C189.368 176.032 187.768 177.664 187.768 180.112C187.768 182.544 189.368 184.16 191.752 184.16C194.152 184.16 195.752 182.544 195.752 180.112C195.752 177.664 194.152 176.032 191.752 176.032ZM191.752 182.624C190.344 182.624 189.4 181.616 189.4 180.096C189.4 178.576 190.344 177.568 191.752 177.568C193.176 177.568 194.12 178.592 194.12 180.112C194.12 181.616 193.176 182.624 191.752 182.624ZM200.579 184H202.179V177.664H203.683V176.192H202.179V175.552C202.179 174.8 202.643 174.528 203.107 174.528C203.411 174.528 203.603 174.56 203.843 174.608V173.12C203.507 173.04 203.283 172.96 202.803 172.96C201.427 172.96 200.579 173.728 200.579 175.424V176.192H199.379V177.664H200.579V184ZM206.534 184.16C207.574 184.16 208.566 183.712 209.366 182.928L209.622 184H210.838V176.192H209.238V181.424C208.694 182.096 207.75 182.592 206.87 182.592C206.182 182.592 205.606 182.288 205.606 181.184V176.192H204.006V180.848C204.006 182.512 204.182 184.16 206.534 184.16ZM215.609 182.496C215.385 182.56 215.129 182.608 214.761 182.608C214.297 182.608 213.945 182.32 213.945 181.712V177.664H215.609V176.192H213.945V174.432H212.649L212.345 176.192H211.145V177.664H212.345V181.68C212.345 183.376 213.193 184.144 214.569 184.144C215.049 184.144 215.273 184.064 215.609 183.984V182.496ZM218.538 184.16C219.578 184.16 220.57 183.712 221.37 182.928L221.626 184H222.842V176.192H221.242V181.424C220.698 182.096 219.754 182.592 218.874 182.592C218.186 182.592 217.61 182.288 217.61 181.184V176.192H216.01V180.848C216.01 182.512 216.186 184.16 218.538 184.16ZM224.892 176.192H223.676V184H225.276V178.416C225.612 177.872 226.204 177.616 227.34 177.616H227.836V176.176C227.676 176.08 227.372 176.032 227.052 176.032C226.284 176.032 225.5 176.576 225.052 177.088L224.892 176.192ZM231.287 176.032C228.903 176.032 227.303 177.664 227.303 180.112C227.303 182.544 228.903 184.16 231.287 184.16C233.687 184.16 235.287 182.544 235.287 180.112C235.287 177.664 233.687 176.032 231.287 176.032ZM231.287 182.624C229.879 182.624 228.935 181.616 228.935 180.096C228.935 178.576 229.879 177.568 231.287 177.568C232.711 177.568 233.655 178.592 233.655 180.112C233.655 181.616 232.711 182.624 231.287 182.624ZM236.472 184.08C237.176 184.08 237.752 183.504 237.752 182.816C237.752 182.128 237.176 181.552 236.472 181.552C235.784 181.552 235.208 182.128 235.208 182.816C235.208 183.504 235.784 184.08 236.472 184.08Z" fill="white"/>
<rect x="40" y="251" width="328" height="55" rx="4" fill="#111111"/>
<path d="M145.415 269.13H137.333V282H140.033V277.068H144.443V274.476H140.033V271.722H145.415V269.13ZM150.104 272.514C148.79 272.514 147.512 272.874 146.414 273.414L147.188 275.358C148.142 274.908 149.042 274.764 149.726 274.764C150.806 274.764 151.256 275.358 151.256 276.042V276.6C150.698 276.204 149.978 276.006 149.096 276.006C147.17 276.006 145.694 277.212 145.694 279.138C145.694 281.01 147.044 282.252 149.078 282.252C150.14 282.252 150.986 281.946 151.562 281.37L151.76 282H153.956V276.15C153.956 274.008 152.66 272.514 150.104 272.514ZM149.888 280.29C149.042 280.29 148.502 279.84 148.502 279.138C148.502 278.436 149.042 277.968 149.888 277.968C150.734 277.968 151.274 278.436 151.274 279.138C151.274 279.84 150.734 280.29 149.888 280.29ZM158.985 279.516C158.445 279.516 158.085 279.354 158.085 278.436V269.13H155.403V279.39C155.403 281.316 156.555 282.09 157.923 282.09C158.265 282.09 158.715 282.054 158.985 281.982V279.516ZM168.908 277.356C168.908 274.62 167.108 272.514 164.282 272.514C161.51 272.514 159.674 274.53 159.674 277.374C159.674 280.29 161.51 282.18 164.282 282.18C166.298 282.18 167.792 281.316 168.584 279.804L166.748 278.778C166.262 279.516 165.632 280.074 164.426 280.074C163.112 280.074 162.302 279.372 162.176 278.148H168.854C168.89 277.95 168.908 277.68 168.908 277.356ZM164.3 274.62C165.488 274.62 166.172 275.286 166.388 276.312H162.176C162.374 275.268 163.148 274.62 164.3 274.62ZM178.669 282.234C180.667 282.234 182.287 281.1 182.953 279.426L180.505 278.346C180.145 279.138 179.569 279.588 178.669 279.588C177.517 279.588 176.653 278.76 176.653 277.356C176.653 275.97 177.517 275.124 178.669 275.124C179.569 275.124 180.145 275.592 180.505 276.402L182.953 275.322C182.287 273.612 180.685 272.514 178.669 272.514C175.825 272.514 173.953 274.548 173.953 277.356C173.953 280.2 175.825 282.234 178.669 282.234ZM188.052 272.514C185.172 272.514 183.21 274.53 183.21 277.374C183.21 280.236 185.172 282.234 188.052 282.234C190.95 282.234 192.912 280.236 192.912 277.374C192.912 274.53 190.95 272.514 188.052 272.514ZM188.052 279.606C186.81 279.606 185.946 278.706 185.946 277.356C185.946 276.024 186.81 275.124 188.052 275.124C189.312 275.124 190.176 276.024 190.176 277.374C190.176 278.706 189.312 279.606 188.052 279.606ZM205.205 272.514C203.963 272.514 202.847 273.09 201.965 273.864C201.569 273.054 200.849 272.514 199.535 272.514C198.329 272.514 197.231 273.054 196.349 273.81L196.025 272.748H194.027V282H196.727V276.096C197.285 275.52 197.969 275.16 198.653 275.16C199.247 275.16 199.679 275.412 199.679 276.474V282H202.379V276.366V276.114C202.937 275.538 203.639 275.16 204.323 275.16C204.899 275.16 205.349 275.412 205.349 276.474V282H208.049V276.366C208.049 274.404 207.653 272.514 205.205 272.514ZM217.923 272.514C216.609 272.514 215.331 272.874 214.233 273.414L215.007 275.358C215.961 274.908 216.861 274.764 217.545 274.764C218.625 274.764 219.075 275.358 219.075 276.042V276.6C218.517 276.204 217.797 276.006 216.915 276.006C214.989 276.006 213.513 277.212 213.513 279.138C213.513 281.01 214.863 282.252 216.897 282.252C217.959 282.252 218.805 281.946 219.381 281.37L219.579 282H221.775V276.15C221.775 274.008 220.479 272.514 217.923 272.514ZM217.707 280.29C216.861 280.29 216.321 279.84 216.321 279.138C216.321 278.436 216.861 277.968 217.707 277.968C218.553 277.968 219.093 278.436 219.093 279.138C219.093 279.84 218.553 280.29 217.707 280.29ZM234.356 273.756C233.672 272.964 232.7 272.514 231.548 272.514C229.046 272.514 227.3 274.386 227.3 277.014C227.3 279.66 229.064 281.496 231.566 281.496C232.52 281.496 233.33 281.226 233.96 280.704V281.262C233.96 282.756 233.15 283.494 231.926 283.476C230.936 283.476 230.36 283.062 229.748 282.072L227.786 283.062L227.948 283.386C228.794 285.114 230.414 285.726 231.926 285.726C234.878 285.726 236.66 283.944 236.66 280.686V272.748H234.644L234.356 273.756ZM232.07 279.138C230.882 279.138 230.036 278.256 230.036 277.014C230.036 275.772 230.882 274.872 232.07 274.872C233.258 274.872 234.104 275.754 234.104 277.014C234.104 278.256 233.258 279.138 232.07 279.138ZM247.004 277.356C247.004 274.62 245.204 272.514 242.378 272.514C239.606 272.514 237.77 274.53 237.77 277.374C237.77 280.29 239.606 282.18 242.378 282.18C244.394 282.18 245.888 281.316 246.68 279.804L244.844 278.778C244.358 279.516 243.728 280.074 242.522 280.074C241.208 280.074 240.398 279.372 240.272 278.148H246.95C246.986 277.95 247.004 277.68 247.004 277.356ZM242.396 274.62C243.584 274.62 244.268 275.286 244.484 276.312H240.272C240.47 275.268 241.244 274.62 242.396 274.62ZM253.834 272.514C252.574 272.514 251.422 273.072 250.504 273.828L250.18 272.748H248.182V282H250.882V276.114C251.476 275.538 252.268 275.16 252.988 275.16C253.636 275.16 254.068 275.412 254.068 276.474V282H256.768V276.366C256.768 274.404 256.354 272.514 253.834 272.514ZM263.808 272.748H261.756V270.534H259.578L259.038 272.748H257.616V275.232H259.056V278.94C259.056 281.208 260.28 282.162 262.296 282.162C262.926 282.162 263.34 282.072 263.808 281.928V279.408C263.574 279.498 263.232 279.57 262.836 279.57C262.188 279.57 261.756 279.228 261.756 278.382V275.232H263.808V272.748ZM273.598 277.356C273.598 274.62 271.798 272.514 268.972 272.514C266.2 272.514 264.364 274.53 264.364 277.374C264.364 280.29 266.2 282.18 268.972 282.18C270.988 282.18 272.482 281.316 273.274 279.804L271.438 278.778C270.952 279.516 270.322 280.074 269.116 280.074C267.802 280.074 266.992 279.372 266.866 278.148H273.544C273.58 277.95 273.598 277.68 273.598 277.356ZM268.99 274.62C270.178 274.62 270.862 275.286 271.078 276.312H266.866C267.064 275.268 267.838 274.62 268.99 274.62Z" fill="white"/>
<path d="M46.904 82C53.148 82 57.152 78.276 57.152 71.864C57.152 65.508 53.176 61.7 46.932 61.7H39.82V82H46.904ZM46.652 66.208C49.984 66.208 52.252 67.972 52.252 71.864C52.252 75.84 49.956 77.492 46.624 77.492H44.608V66.208H46.652ZM65.519 82.392C68.627 82.392 70.895 80.992 72.239 78.528L68.991 76.82C68.207 78.024 67.087 78.64 65.743 78.64C63.923 78.668 62.747 77.828 62.411 76.288H72.435C72.519 75.812 72.575 75.084 72.575 74.384C72.575 70.324 69.887 67.048 65.379 67.048C60.955 67.048 58.043 70.212 58.043 74.72C58.043 79.312 61.123 82.392 65.519 82.392ZM65.379 70.604C66.947 70.604 68.039 71.444 68.291 72.928H62.439C62.775 71.444 63.895 70.604 65.379 70.604ZM73.6783 71.78C73.6783 74.216 75.0223 75.728 77.9623 76.344C80.5103 76.904 81.1823 77.268 81.1823 77.912C81.1823 78.472 80.5663 78.836 79.8103 78.836C78.4383 78.836 77.2623 78.388 75.8343 76.904L73.3423 79.396C75.0503 81.552 76.9543 82.476 79.4183 82.476C82.8903 82.476 85.3263 80.544 85.3263 77.716C85.3263 75.028 83.6183 73.656 79.9783 72.872C78.1303 72.48 77.6823 72.144 77.6823 71.584C77.6823 70.996 78.2703 70.66 79.2223 70.66C80.6783 70.66 81.8823 71.276 82.6943 72.06L85.3543 69.596C84.1223 68.14 82.2463 66.936 79.5303 66.936C75.8903 66.936 73.6783 69.148 73.6783 71.78ZM93.7043 71.388C94.9923 71.388 95.8043 71.976 96.4483 73.236L100.452 71.36C99.3323 68.588 96.8123 67.048 93.5923 67.048C89.2803 67.048 86.2563 70.268 86.2563 74.72C86.2563 79.172 89.2803 82.392 93.5923 82.392C96.7843 82.392 99.3323 80.824 100.452 78.052L96.4483 76.204C95.8043 77.436 94.9923 78.024 93.7043 78.024C92.0243 78.024 90.8763 76.736 90.8763 74.692C90.8763 72.704 92.0243 71.388 93.7043 71.388ZM108.541 67.048C103.977 67.048 100.869 70.296 100.869 74.72C100.869 79.172 103.977 82.392 108.541 82.392C113.105 82.392 116.241 79.172 116.241 74.72C116.241 70.296 113.105 67.048 108.541 67.048ZM108.541 78.052C106.749 78.052 105.545 76.68 105.545 74.692C105.545 72.732 106.749 71.388 108.541 71.388C110.361 71.388 111.565 72.732 111.565 74.692C111.565 76.68 110.361 78.052 108.541 78.052ZM126.478 67.048C124.714 67.048 123.006 67.804 121.69 68.868L121.326 67.44H117.77V82H122.39V72.592C123.202 71.864 124.182 71.388 125.134 71.388C126.114 71.388 126.59 71.78 126.59 73.432V82H131.21V73.012C131.21 72.872 131.182 72.732 131.182 72.592C131.994 71.864 132.974 71.388 133.926 71.388C134.934 71.388 135.382 71.78 135.382 73.432V82H140.002V73.012C140.002 69.96 139.246 67.048 135.298 67.048C133.45 67.048 131.714 67.86 130.37 68.98C129.698 67.804 128.522 67.048 126.478 67.048ZM142.172 87.264H146.792V81.188C147.828 81.972 149.144 82.392 150.656 82.392C154.688 82.392 157.656 79.144 157.656 74.72C157.656 70.268 154.744 67.048 150.684 67.048C148.836 67.048 147.268 67.776 146.148 69.008L145.728 67.44H142.172V87.264ZM149.9 78.22C148.024 78.22 146.792 76.764 146.792 74.72C146.792 72.648 148.024 71.192 149.9 71.192C151.692 71.192 152.98 72.648 152.98 74.72C152.98 76.764 151.692 78.22 149.9 78.22ZM164.903 82.084V77.66C163.979 77.66 163.531 77.352 163.531 75.924V61.7H158.911V77.324C158.911 80.824 160.955 82.14 163.587 82.14C164.007 82.14 164.595 82.112 164.903 82.084ZM166.138 62.876C166.138 64.416 167.258 65.564 168.854 65.564C170.45 65.564 171.57 64.416 171.57 62.876C171.57 61.28 170.45 60.132 168.854 60.132C167.258 60.132 166.138 61.28 166.138 62.876ZM171.15 82V67.44H166.53V82H171.15ZM180.149 71.388C181.437 71.388 182.249 71.976 182.893 73.236L186.897 71.36C185.777 68.588 183.257 67.048 180.037 67.048C175.725 67.048 172.701 70.268 172.701 74.72C172.701 79.172 175.725 82.392 180.037 82.392C183.229 82.392 185.777 80.824 186.897 78.052L182.893 76.204C182.249 77.436 181.437 78.024 180.149 78.024C178.469 78.024 177.321 76.736 177.321 74.692C177.321 72.704 178.469 71.388 180.149 71.388ZM200.697 82V73.124C200.697 69.344 198.541 67.048 194.313 67.048C192.185 67.048 190.309 67.636 188.517 68.56L189.833 71.836C191.317 71.024 192.661 70.828 193.697 70.828C195.237 70.828 196.077 71.584 196.077 72.648V73.712C195.321 73.096 194.313 72.62 192.941 72.62C189.973 72.62 187.397 74.384 187.397 77.52C187.397 80.32 189.861 82.392 192.941 82.392C194.453 82.392 195.741 81.832 196.609 80.964L196.861 82H200.697ZM193.697 75.868C194.957 75.868 195.825 76.568 195.825 77.52C195.797 78.472 194.929 79.144 193.697 79.144C192.549 79.144 191.653 78.472 191.653 77.52C191.653 76.568 192.549 75.868 193.697 75.868ZM39.54 123.264H44.16V117.188C45.196 117.972 46.512 118.392 48.024 118.392C52.056 118.392 55.024 115.144 55.024 110.72C55.024 106.268 52.112 103.048 48.052 103.048C46.204 103.048 44.636 103.776 43.516 105.008L43.096 103.44H39.54V123.264ZM47.268 114.22C45.392 114.22 44.16 112.764 44.16 110.72C44.16 108.648 45.392 107.192 47.268 107.192C49.06 107.192 50.348 108.648 50.348 110.72C50.348 112.764 49.06 114.22 47.268 114.22ZM68.8293 118V109.124C68.8293 105.344 66.6733 103.048 62.4453 103.048C60.3173 103.048 58.4413 103.636 56.6493 104.56L57.9653 107.836C59.4493 107.024 60.7933 106.828 61.8293 106.828C63.3693 106.828 64.2093 107.584 64.2093 108.648V109.712C63.4533 109.096 62.4453 108.62 61.0733 108.62C58.1053 108.62 55.5293 110.384 55.5293 113.52C55.5293 116.32 57.9933 118.392 61.0733 118.392C62.5853 118.392 63.8733 117.832 64.7413 116.964L64.9933 118H68.8293ZM61.8293 111.868C63.0893 111.868 63.9573 112.568 63.9573 113.52C63.9293 114.472 63.0613 115.144 61.8293 115.144C60.6813 115.144 59.7853 114.472 59.7853 113.52C59.7853 112.568 60.6813 111.868 61.8293 111.868ZM74.3444 103.44H70.7884V118H75.4084V108.452C76.2204 107.808 77.4524 107.528 79.0764 107.528H80.0284V103.328C79.7204 103.132 79.1884 103.048 78.5724 103.048C77.1444 103.048 75.6604 103.972 74.7084 104.84L74.3444 103.44ZM93.4332 118V109.124C93.4332 105.344 91.2772 103.048 87.0492 103.048C84.9212 103.048 83.0452 103.636 81.2532 104.56L82.5692 107.836C84.0532 107.024 85.3972 106.828 86.4332 106.828C87.9732 106.828 88.8132 107.584 88.8132 108.648V109.712C88.0572 109.096 87.0492 108.62 85.6772 108.62C82.7092 108.62 80.1332 110.384 80.1332 113.52C80.1332 116.32 82.5972 118.392 85.6772 118.392C87.1892 118.392 88.4772 117.832 89.3452 116.964L89.5972 118H93.4332ZM86.4332 111.868C87.6932 111.868 88.5612 112.568 88.5612 113.52C88.5332 114.472 87.6652 115.144 86.4332 115.144C85.2852 115.144 84.3892 114.472 84.3892 113.52C84.3892 112.568 85.2852 111.868 86.4332 111.868ZM115.378 113.408H107.034V110.132H113.726V105.54H107.034V102.292H115.378V97.7H102.246V118H115.378V113.408ZM116.98 107.78C116.98 110.216 118.324 111.728 121.264 112.344C123.812 112.904 124.484 113.268 124.484 113.912C124.484 114.472 123.868 114.836 123.112 114.836C121.74 114.836 120.564 114.388 119.136 112.904L116.644 115.396C118.352 117.552 120.256 118.476 122.72 118.476C126.192 118.476 128.628 116.544 128.628 113.716C128.628 111.028 126.92 109.656 123.28 108.872C121.432 108.48 120.984 108.144 120.984 107.584C120.984 106.996 121.572 106.66 122.524 106.66C123.98 106.66 125.184 107.276 125.996 108.06L128.656 105.596C127.424 104.14 125.548 102.936 122.832 102.936C119.192 102.936 116.98 105.148 116.98 107.78ZM137.006 107.388C138.294 107.388 139.106 107.976 139.75 109.236L143.754 107.36C142.634 104.588 140.114 103.048 136.894 103.048C132.582 103.048 129.558 106.268 129.558 110.72C129.558 115.172 132.582 118.392 136.894 118.392C140.086 118.392 142.634 116.824 143.754 114.052L139.75 112.204C139.106 113.436 138.294 114.024 137.006 114.024C135.326 114.024 134.178 112.736 134.178 110.692C134.178 108.704 135.326 107.388 137.006 107.388ZM151.842 103.048C147.278 103.048 144.17 106.296 144.17 110.72C144.17 115.172 147.278 118.392 151.842 118.392C156.406 118.392 159.542 115.172 159.542 110.72C159.542 106.296 156.406 103.048 151.842 103.048ZM151.842 114.052C150.05 114.052 148.846 112.68 148.846 110.692C148.846 108.732 150.05 107.388 151.842 107.388C153.662 107.388 154.866 108.732 154.866 110.692C154.866 112.68 153.662 114.052 151.842 114.052ZM166.784 118.084V113.66C165.86 113.66 165.412 113.352 165.412 111.924V97.7H160.792V113.324C160.792 116.824 162.836 118.14 165.468 118.14C165.888 118.14 166.476 118.112 166.784 118.084ZM180.955 118V109.124C180.955 105.344 178.799 103.048 174.571 103.048C172.443 103.048 170.567 103.636 168.775 104.56L170.091 107.836C171.575 107.024 172.919 106.828 173.955 106.828C175.495 106.828 176.335 107.584 176.335 108.648V109.712C175.579 109.096 174.571 108.62 173.199 108.62C170.231 108.62 167.655 110.384 167.655 113.52C167.655 116.32 170.119 118.392 173.199 118.392C174.711 118.392 175.999 117.832 176.867 116.964L177.119 118H180.955ZM173.955 111.868C175.215 111.868 176.083 112.568 176.083 113.52C176.055 114.472 175.187 115.144 173.955 115.144C172.807 115.144 171.911 114.472 171.911 113.52C171.911 112.568 172.807 111.868 173.955 111.868ZM182.55 107.78C182.55 110.216 183.894 111.728 186.834 112.344C189.382 112.904 190.054 113.268 190.054 113.912C190.054 114.472 189.438 114.836 188.682 114.836C187.31 114.836 186.134 114.388 184.706 112.904L182.214 115.396C183.922 117.552 185.826 118.476 188.29 118.476C191.762 118.476 194.198 116.544 194.198 113.716C194.198 111.028 192.49 109.656 188.85 108.872C187.002 108.48 186.554 108.144 186.554 107.584C186.554 106.996 187.142 106.66 188.094 106.66C189.55 106.66 190.754 107.276 191.566 108.06L194.226 105.596C192.994 104.14 191.118 102.936 188.402 102.936C184.762 102.936 182.55 105.148 182.55 107.78Z" fill="white"/>
<circle cx="326" cy="121" r="45" fill="white"/>
<path fill-rule="evenodd" clip-rule="evenodd" d="M317.574 103.996C322.451 103.996 325.48 108.139 325.48 114.756C325.48 121.373 322.451 125.516 317.574 125.516C312.697 125.516 309.638 121.373 309.638 114.756C309.638 108.139 312.697 103.996 317.574 103.996ZM317.574 121.435C320.118 121.435 321.209 118.559 321.209 114.756C321.209 111.293 320.118 108.077 317.574 108.077C314.908 108.077 313.878 111.293 313.878 114.756C313.878 118.559 314.908 121.435 317.574 121.435Z" fill="#111111"/>
<path fill-rule="evenodd" clip-rule="evenodd" d="M334.012 103.996C338.586 103.996 341.918 107.892 341.918 113.674C341.918 121.002 338.495 125.516 332.8 125.516C330.226 125.516 327.954 124.589 326.227 122.764L328.56 119.858C329.953 121.156 331.104 121.62 333.134 121.651C335.375 121.527 337.465 119.827 338.01 115.684C336.647 116.766 334.86 117.415 333.073 117.415C329.256 117.415 326.348 114.725 326.348 111.139C326.348 106.933 329.347 103.996 334.012 103.996ZM333.8 113.829C335.89 113.829 337.223 112.654 337.223 110.798C337.223 108.912 335.89 107.737 333.8 107.737C331.71 107.737 330.407 108.912 330.407 110.798C330.407 112.654 331.71 113.829 333.8 113.829Z" fill="#111111"/>
<path fill-rule="evenodd" clip-rule="evenodd" d="M317.355 137.67H316.089L315.382 135.759H311.61L310.903 137.67H309.638L312.652 129.234H314.34L317.355 137.67ZM313.496 130.611L312.082 134.469H314.91L313.496 130.611Z" fill="#999999"/>
<path d="M324.057 137.67H325.174V129.234H323.933V135.449L319.169 129.234H318.053V137.67H319.293V131.417L324.057 137.67Z" fill="#999999"/>
<path fill-rule="evenodd" clip-rule="evenodd" d="M330.953 137.794C328.435 137.794 326.561 135.945 326.561 133.452C326.561 130.946 328.435 129.109 330.953 129.109C333.447 129.109 335.308 130.946 335.308 133.452C335.308 135.945 333.447 137.794 330.953 137.794ZM330.953 130.3C329.167 130.3 327.827 131.628 327.827 133.452C327.827 135.276 329.167 136.603 330.953 136.603C332.728 136.603 334.042 135.276 334.042 133.452C334.042 131.628 332.728 130.3 330.953 130.3Z" fill="#999999"/>
<path d="M342.059 135.3C342.059 134.072 341.202 133.34 339.466 132.919C337.977 132.546 337.617 132.038 337.617 131.454C337.617 130.834 338.089 130.313 339.007 130.313C339.664 130.313 340.185 130.462 340.781 131.194L341.823 130.524C341.19 129.568 340.272 129.109 339.056 129.109C337.418 129.109 336.401 130.164 336.401 131.541C336.401 132.546 337.022 133.439 338.87 133.824C340.446 134.159 340.818 134.792 340.818 135.387C340.818 136.095 340.198 136.665 339.243 136.665C338.299 136.665 337.741 136.268 337.146 135.189L336.116 135.772C336.761 137.335 337.903 137.856 339.118 137.856C340.843 137.856 342.059 136.715 342.059 135.3Z" fill="#999999"/>
<path fill-rule="evenodd" clip-rule="evenodd" d="M325 159.899C324.812 158.291 325.785 156.987 327.414 156.797C329.042 156.606 330.301 157.649 330.489 159.256C330.678 160.874 329.694 162.169 328.065 162.359C326.436 162.55 325.19 161.517 325 159.899ZM326.396 159.735C326.505 160.666 327.086 161.23 327.921 161.132C328.767 161.033 329.202 160.35 329.093 159.419C328.985 158.5 328.403 157.925 327.557 158.024C326.722 158.121 326.289 158.816 326.396 159.735Z" fill="#111111"/>
<path fill-rule="evenodd" clip-rule="evenodd" d="M323.516 162.39L322.501 162.271L322.469 161.714C322.068 162.075 321.558 162.287 320.983 162.22C319.681 162.068 318.856 160.904 319.027 159.44C319.197 157.984 320.269 157.032 321.571 157.184C322.078 157.243 322.487 157.485 322.785 157.84L323.053 155.542L324.298 155.687L323.516 162.39ZM322.551 159.851C322.65 158.999 322.322 158.397 321.585 158.311C320.905 158.232 320.39 158.735 320.291 159.587C320.192 160.439 320.577 161.047 321.257 161.127C321.994 161.212 322.451 160.703 322.551 159.851Z" fill="#111111"/>
<path d="M316.021 156.567C316.537 156.706 316.694 156.963 316.498 157.69L315.618 160.958L316.989 161.327L317.857 158.102C318.153 157.005 318.224 155.86 316.674 155.443C316.063 155.278 315.357 155.337 314.772 155.62L314.814 155.088L313.696 154.788L312.277 160.058L313.647 160.427L314.635 156.759C315.058 156.533 315.589 156.45 316.021 156.567Z" fill="#111111"/>
<path fill-rule="evenodd" clip-rule="evenodd" d="M310.435 159.188L309.421 158.73L309.559 158.265C309.044 158.452 308.413 158.443 307.867 158.196C306.872 157.747 306.32 156.636 306.755 155.672C307.231 154.617 308.393 154.376 309.457 154.856C309.994 155.098 310.263 155.459 310.408 155.8L310.641 155.282C310.825 154.875 310.578 154.416 310.011 154.16C309.643 153.994 309.154 153.858 308.497 153.908L308.56 152.787C309.344 152.746 309.963 152.834 310.719 153.175C312.061 153.781 312.396 154.842 311.835 156.085L310.435 159.188ZM309.224 155.983C308.766 155.777 308.247 155.866 308.068 156.264C307.888 156.662 308.17 157.1 308.627 157.306C309.094 157.517 309.529 157.402 309.719 157.009C309.898 156.611 309.701 156.199 309.224 155.983Z" fill="#111111"/>
<path d="M305.074 151.615C305.523 151.906 305.593 152.198 305.184 152.831L303.344 155.671L304.535 156.442L306.351 153.639C306.968 152.686 307.387 151.618 306.041 150.745C305.509 150.401 304.82 150.24 304.176 150.33L304.378 149.837L303.407 149.208L300.439 153.789L301.63 154.561L303.696 151.373C304.167 151.288 304.698 151.371 305.074 151.615Z" fill="#111111"/>
<path fill-rule="evenodd" clip-rule="evenodd" d="M302.371 146.799C302.016 146.431 302.027 145.836 302.387 145.489C302.764 145.126 303.359 145.137 303.714 145.506C304.077 145.882 304.058 146.468 303.681 146.831C303.321 147.178 302.734 147.176 302.371 146.799ZM302.302 147.907L298.209 151.852L297.184 150.787L301.277 146.843L302.302 147.907Z" fill="#111111"/>
<path d="M294.283 139.996C294.55 140.459 294.479 140.752 293.826 141.128L290.893 142.816L291.601 144.046L294.496 142.379C295.48 141.813 296.34 141.054 295.54 139.662C295.224 139.114 294.683 138.657 294.069 138.443L294.474 138.097L293.897 137.094L289.167 139.817L289.875 141.047L293.167 139.151C293.625 139.291 294.059 139.607 294.283 139.996Z" fill="#111111"/>
<path d="M295.65 145.006C296.139 146.005 296.259 146.444 295.931 146.718C295.67 146.935 295.296 146.838 295.022 146.51C294.644 146.057 294.539 145.637 294.692 144.74L293.403 144.489C293.085 145.54 293.244 146.438 293.888 147.21C294.756 148.253 296.013 148.564 296.94 147.791C297.838 147.043 297.688 146.137 297.093 144.932C296.655 144.053 296.729 143.828 296.98 143.619C297.27 143.378 297.643 143.492 297.965 143.878C298.359 144.351 298.407 144.9 298.312 145.257L299.651 145.45C299.83 144.761 299.733 143.86 299.073 143.069C298.132 141.939 296.876 141.825 296.055 142.509C295.177 143.241 295.183 144.053 295.65 145.006Z" fill="#111111"/>
<path fill-rule="evenodd" clip-rule="evenodd" d="M289.87 136.387L289.739 137.627C288.644 137.461 287.952 136.978 287.537 135.917C286.962 134.45 287.622 132.922 289.139 132.328C290.705 131.715 292.134 132.299 292.713 133.776C293.307 135.293 292.623 136.555 291.235 137.098C291.047 137.172 290.795 137.259 290.571 137.302L289.213 133.831C288.611 134.193 288.385 134.784 288.667 135.474C288.83 135.891 289.221 136.275 289.87 136.387ZM291.09 135.646C291.715 135.344 291.95 134.806 291.698 134.162C291.453 133.537 290.923 133.322 290.236 133.465L291.09 135.646Z" fill="#111111"/>
<path fill-rule="evenodd" clip-rule="evenodd" d="M361.903 136.909L362.895 136.153C363.525 137.062 363.65 137.898 363.163 138.928C362.491 140.354 360.928 140.923 359.454 140.227C357.933 139.51 357.376 138.07 358.053 136.635C358.748 135.162 360.135 134.792 361.483 135.428C361.666 135.514 361.902 135.637 362.087 135.771L360.496 139.142C361.172 139.331 361.757 139.089 362.066 138.41C362.256 138.006 362.268 137.458 361.903 136.909ZM360.527 136.531C359.879 136.284 359.326 136.482 359.031 137.108C358.744 137.715 358.952 138.248 359.528 138.65L360.527 136.531Z" fill="#111111"/>
<path d="M356.299 142.309C356.597 141.865 356.891 141.8 357.517 142.219L360.328 144.104L361.118 142.925L358.344 141.064C357.4 140.432 356.339 139.997 355.445 141.329C355.093 141.855 354.921 142.542 355.001 143.187L354.511 142.977L353.867 143.938L358.4 146.978L359.191 145.799L356.035 143.684C355.958 143.211 356.05 142.681 356.299 142.309Z" fill="#111111"/>
<path fill-rule="evenodd" clip-rule="evenodd" d="M351.401 144.922C351.021 145.287 350.408 145.273 350.052 144.901C349.68 144.512 349.693 143.9 350.073 143.535C350.462 143.163 351.067 143.184 351.439 143.573C351.795 143.945 351.79 144.55 351.401 144.922ZM352.542 144.997L356.59 149.226L355.491 150.279L351.443 146.05L352.542 144.997Z" fill="#111111"/>
<path d="M352.94 151.071C352.667 151.312 352.432 151.29 352.141 150.961L348.414 146.739L347.369 147.662L351.295 152.109C352.04 152.953 352.8 152.955 353.524 152.316C353.636 152.216 353.726 152.123 353.799 152.044L352.94 151.071Z" fill="#111111"/>
<path d="M345.976 152.058C346.418 151.756 346.715 151.804 347.14 152.426L349.053 155.218L350.224 154.416L348.336 151.66C347.695 150.723 346.87 149.925 345.546 150.832C345.024 151.189 344.61 151.764 344.445 152.392L344.068 152.016L343.113 152.669L346.197 157.173L347.368 156.371L345.222 153.237C345.325 152.769 345.607 152.311 345.976 152.058Z" fill="#111111"/>
<path fill-rule="evenodd" clip-rule="evenodd" d="M338.378 158.194C337.765 156.672 338.368 155.138 339.909 154.516C341.45 153.895 342.959 154.578 343.572 156.099C344.19 157.63 343.573 159.159 342.032 159.78C340.49 160.402 338.996 159.725 338.378 158.194ZM339.699 157.661C340.054 158.541 340.773 158.938 341.563 158.619C342.364 158.297 342.606 157.512 342.251 156.632C341.9 155.761 341.177 155.354 340.377 155.677C339.587 155.996 339.348 156.79 339.699 157.661Z" fill="#111111"/>
<path fill-rule="evenodd" clip-rule="evenodd" d="M327.669 82.1199C327.864 80.4646 329.15 79.3904 330.827 79.5881C332.504 79.7857 333.516 81.1306 333.321 82.7859C333.125 84.4522 331.829 85.5141 330.152 85.3165C328.475 85.1189 327.472 83.7862 327.669 82.1199ZM329.106 82.2893C328.993 83.2477 329.44 83.9518 330.301 84.0532C331.172 84.1559 331.77 83.5749 331.884 82.6165C331.995 81.6691 331.549 80.954 330.678 80.8514C329.818 80.75 329.218 81.3418 329.106 82.2893Z" fill="#111111"/>
<path fill-rule="evenodd" clip-rule="evenodd" d="M326.763 85.1954L325.751 85.2346L325.635 84.6942C325.297 85.1088 324.83 85.3946 324.258 85.4167C322.96 85.4671 321.974 84.4537 321.917 82.9934C321.861 81.5425 322.765 80.4464 324.063 80.3961C324.569 80.3765 325.006 80.5508 325.352 80.8528L325.263 78.562L326.504 78.5139L326.763 85.1954ZM325.43 82.8572C325.397 82.0078 324.984 81.4693 324.249 81.4978C323.571 81.5241 323.144 82.095 323.177 82.9446C323.21 83.794 323.68 84.3303 324.358 84.304C325.093 84.2755 325.463 83.7067 325.43 82.8572Z" fill="#111111"/>
<path d="M318.211 81.5617C318.745 81.4272 319.015 81.5794 319.205 82.3318L320.056 85.7118L321.473 85.3549L320.633 82.0184C320.348 80.8845 319.836 79.8191 318.233 80.2227C317.601 80.382 316.996 80.7894 316.612 81.3381L316.382 80.8395L315.227 81.1306L316.6 86.5823L318.017 86.2253L317.061 82.4309C317.328 82.016 317.764 81.6743 318.211 81.5617Z" fill="#111111"/>
<path fill-rule="evenodd" clip-rule="evenodd" d="M315.4 86.7657L314.343 87.208L314.09 86.7779C313.868 87.2968 313.419 87.7651 312.848 88.0036C311.812 88.4372 310.587 88.0724 310.167 87.067C309.707 85.9681 310.342 84.9231 311.451 84.4591C312.011 84.225 312.471 84.2761 312.83 84.4062L312.604 83.8671C312.426 83.4421 311.907 83.3063 311.316 83.5535C310.932 83.7139 310.486 83.9859 310.062 84.5164L309.262 83.6817C309.783 83.0621 310.283 82.6577 311.071 82.3282C312.471 81.7427 313.505 82.2357 314.047 83.5315L315.4 86.7657ZM312.136 85.4271C311.659 85.6265 311.362 86.0799 311.535 86.4945C311.709 86.9092 312.236 87.0053 312.713 86.8057C313.2 86.602 313.419 86.1937 313.256 85.7747C313.082 85.3601 312.634 85.2189 312.136 85.4271Z" fill="#111111"/>
<path d="M305.645 86.6315C306.11 86.3361 306.415 86.3958 306.831 87.0506L308.7 89.9926L309.934 89.2088L308.088 86.3047C307.461 85.3177 306.641 84.4668 305.246 85.3532C304.695 85.7029 304.249 86.2795 304.057 86.921L303.682 86.5197L302.677 87.1588L305.691 91.904L306.925 91.1202L304.827 87.8175C304.95 87.3399 305.256 86.8787 305.645 86.6315Z" fill="#111111"/>
<path fill-rule="evenodd" clip-rule="evenodd" d="M359.147 104.221L359.205 105.505C358.065 105.505 357.285 105.119 356.698 104.103C355.887 102.698 356.323 101.04 357.776 100.201C359.276 99.3349 360.822 99.7088 361.639 101.124C362.478 102.577 361.977 103.968 360.647 104.735C360.466 104.84 360.224 104.967 360.002 105.044L358.083 101.721C357.526 102.181 357.388 102.819 357.781 103.478C358.011 103.877 358.468 104.208 359.147 104.221ZM360.275 103.279C360.865 102.875 361.021 102.291 360.664 101.674C360.319 101.075 359.746 100.938 359.068 101.19L360.275 103.279Z" fill="#111111"/>
<path d="M357.223 96.2979C357.541 96.7481 357.496 97.055 356.862 97.5023L354.015 99.5122L354.857 100.706L357.668 98.7225C358.624 98.0483 359.434 97.1875 358.481 95.8371C358.105 95.3043 357.507 94.8866 356.857 94.726L357.24 94.3322L356.552 93.3584L351.959 96.6001L352.802 97.7943L355.999 95.5381C356.482 95.6376 356.957 95.9213 357.223 96.2979Z" fill="#111111"/>
<path fill-rule="evenodd" clip-rule="evenodd" d="M354.591 90.8685C354.26 90.5456 354.253 90.0076 354.569 89.6837C354.899 89.3449 355.437 89.338 355.768 89.661C356.107 89.9911 356.106 90.5219 355.776 90.8606C355.461 91.1846 354.93 91.1986 354.591 90.8685ZM354.561 91.8723L350.972 95.5538L350.015 94.6209L353.603 90.9394L354.561 91.8723Z" fill="#111111"/>
<path d="M349.647 92.8094C349.362 92.6018 349.335 92.3763 349.585 92.033L352.79 87.6375L351.702 86.8438L348.325 91.4737C347.684 92.3528 347.841 93.0699 348.594 93.6194C348.712 93.7049 348.818 93.7698 348.908 93.8225L349.647 92.8094Z" fill="#111111"/>
<path d="M346.744 86.7214C347.212 87.0114 347.291 87.3114 346.883 87.9711L345.049 90.935L346.292 91.7042L348.102 88.7785C348.718 87.7842 349.126 86.6751 347.721 85.8053C347.166 85.4622 346.453 85.3116 345.792 85.4182L345.99 84.906L344.977 84.2788L342.018 89.0594L343.261 89.8286L345.32 86.5013C345.803 86.4038 346.352 86.4788 346.744 86.7214Z" fill="#111111"/>
<path fill-rule="evenodd" clip-rule="evenodd" d="M337.439 84.1938C338.017 82.6066 339.536 81.8474 341.144 82.4336C342.752 83.0199 343.436 84.5825 342.858 86.1696C342.275 87.7672 340.749 88.5121 339.141 87.9259C337.534 87.3396 336.856 85.7913 337.439 84.1938ZM338.817 84.6962C338.482 85.6151 338.758 86.4139 339.583 86.7147C340.419 87.0192 341.144 86.5859 341.479 85.667C341.81 84.7586 341.538 83.9494 340.703 83.6449C339.878 83.3441 339.148 83.7878 338.817 84.6962Z" fill="#111111"/>
<path fill-rule="evenodd" clip-rule="evenodd" d="M300.515 89.1197C300.175 89.4109 299.656 89.3706 299.371 89.0381C299.073 88.6904 299.114 88.1713 299.454 87.8802C299.801 87.5825 300.313 87.6293 300.61 87.977C300.895 88.3095 300.862 88.8221 300.515 89.1197ZM301.479 89.2369L304.714 93.0161L303.732 93.8571L300.497 90.078L301.479 89.2369Z" fill="#111111"/>
<path d="M293.596 97.8448C293.92 97.3994 294.225 97.3434 294.852 97.8002L297.67 99.8524L298.53 98.6709L295.749 96.6452C294.804 95.9567 293.729 95.4657 292.756 96.8018C292.372 97.3289 292.168 98.0289 292.225 98.6961L291.729 98.4601L291.027 99.4235L295.571 102.733L296.432 101.552L293.269 99.2482C293.208 98.7588 293.324 98.2174 293.596 97.8448Z" fill="#111111"/>
<path d="M298.777 94.9444C299.718 94.3276 300.144 94.1511 300.46 94.4461C300.711 94.6804 300.661 95.0688 300.366 95.3847C299.958 95.8214 299.55 95.9793 298.631 95.9388L298.542 97.2639C299.636 97.4513 300.517 97.1783 301.211 96.4351C302.148 95.4316 302.302 94.1313 301.41 93.2984C300.546 92.4915 299.655 92.7558 298.521 93.5052C297.694 94.0551 297.459 94.0092 297.217 93.7836C296.939 93.5233 297.006 93.1343 297.353 92.7627C297.778 92.3074 298.323 92.1898 298.693 92.2401L298.719 90.8722C298.005 90.7797 297.113 90.9901 296.401 91.752C295.386 92.839 295.43 94.1146 296.219 94.8521C297.065 95.6416 297.88 95.5328 298.777 94.9444Z" fill="#111111"/>
<path fill-rule="evenodd" clip-rule="evenodd" d="M292.842 103.807L293.874 102.905C294.633 103.855 294.83 104.762 294.374 105.928C293.742 107.541 292.069 108.281 290.402 107.628C288.681 106.953 287.963 105.415 288.599 103.792C289.252 102.125 290.746 101.616 292.272 102.214C292.479 102.295 292.747 102.413 292.959 102.546L291.465 106.36C292.22 106.517 292.843 106.209 293.131 105.442C293.311 104.984 293.283 104.382 292.842 103.807ZM291.305 103.494C290.575 103.272 289.984 103.53 289.707 104.238C289.438 104.925 289.705 105.494 290.366 105.892L291.305 103.494Z" fill="#111111"/>
<path d="M365.217 121.875C366.031 121.875 366.705 121.201 366.705 120.376C366.705 119.552 366.031 118.878 365.217 118.878C364.402 118.878 363.729 119.552 363.729 120.376C363.729 121.201 364.402 121.875 365.217 121.875Z" fill="#00C974"/>
<path d="M287.032 121.875C287.847 121.875 288.521 121.201 288.521 120.376C288.521 119.552 287.847 118.878 287.032 118.878C286.218 118.878 285.544 119.552 285.544 120.376C285.544 121.201 286.218 121.875 287.032 121.875Z" fill="#00C974"/>
</svg>
